<?xml version="1.0" encoding="utf-8"?>
<svg xmlns="http://www.w3.org/2000/svg" xmlns:xlink="http://www.w3.org/1999/xlink" version= "1.1" width="1618px" height="1000px" viewBox="-350 195 1618 1000">
<g id="layer1">
<g style="fill:rgb(236,95,94); fill-opacity:0.99607843; stroke-linejoin: miter">
<path d="M-357.73032,190.65747L457.96713,190.65797L1273.6646,190.65848L1273.6646,1209.5474Q457.96713,1209.5479,-357.73032,1209.5483Q-357.73032,700.1029,-357.73032,190.65747"/>
</g>
<g style="fill:rgb(136,210,255); fill-opacity:1.0; stroke-linejoin: miter">
<path d="M99.49787,519.4904L100.35795,548.11005Q100.088,634.7576,78.70442,687.8677Q57.151024,740.945,23.576508,732.9706Q-8.70299,721.02374,-31.233284,655.72943Q-38.462498,634.6208,-43.76585,609.552L-48.482353,583.7392Q-52.664734,557.0594,-54.28923,527.8956Q-58.35627,438.346,-39.907364,377.7267Q-21.458492,317.1074,11.092968,313.06284Q43.891346,313.53564,68.836525,371.7833Q93.78172,430.03088,99.49787,519.4904"/>
</g>
<g style="fill:rgb(255,255,255); fill-opacity:0.25490198; stroke-linejoin: miter">
<path d="M103.910805,559.60565L-24.372602,673.57L18.159801,728.14935L53.832188,719.2244L79.21448,683.5247L95.67868,623.4533L103.910805,559.60565"/>
</g>
<g style="fill:rgb(255,255,255); fill-opacity:0.25882354; stroke-linejoin: miter">
<path d="M-57.300846,486.83322L74.41257,368.40643L55.225224,332.25476L18.2174,311.5589L-20.342884,332.01715L-49.086037,387.43832L-60.058937,446.0793L-57.300846,486.83322"/>
</g>
<g style="fill:rgb(87,135,178); fill-opacity:1.0; stroke-linejoin: miter">
<path d="M223.38974,875.6481L299.16052,796.15796L374.93134,716.6676Q389.33286,748.0905,403.73438,779.51355L316.4837,865.1188Q286.40115,899.29877,256.31866,933.47876L223.38974,875.6481"/>
</g>
<g style="fill:rgb(254,186,155); fill-opacity:0.99607843; stroke-linejoin: miter">
<path d="M684.67957,480.32135L678.62573,481.17004Q678.8062,476.28094,677.4582,474.5374Q676.9527,473.81726,676.1087,473.32452L675.1589,472.90277L673.9974,472.62323L672.6032,472.5Q666.91266,472.57617,660.8217,475.0703Q658.8785,475.87628,657.2548,476.87573L655.7668,477.91437L654.5497,479.03125L653.6596,480.2171L653.1522,481.46277L653.06824,482.784L653.3883,484.1388Q654.53723,486.91998,657.67017,489.51285Q659.18463,490.79025,660.88275,491.90652Q661.7732,492.62247,665.8697,494.70224Q669.75824,496.53085,672.25006,496.30923Q674.6991,496.0112,676.3591,493.62344L683.64746,492.1464L684.67957,480.32135"/>
</g>
<g style="fill:rgb(254,186,155); fill-opacity:0.99607843; stroke-linejoin: miter">
<path d="M665.317,475.60913L665.317,475.61035Q663.7785,470.9703,663.75397,468.8646Q663.7471,468.2629,663.865,467.772Q664.03937,467.1982,664.13794,467.08902L664.2769,466.88394Q664.4266,466.689,664.61304,466.53403Q664.9891,466.2244,665.4751,466.0718Q667.7378,465.5416,669.5323,467.13058Q669.9375,467.5065,670.2862,467.97842Q670.48737,468.16885,671.23334,469.5622Q672.0661,471.34045,672.74634,473.378L665.317,475.60913"/>
</g>
<g style="fill:rgb(254,186,155); fill-opacity:0.99607843; stroke-linejoin: miter">
<path d="M653.64984,480.42877L653.64984,480.42987Q652.2234,477.5716,651.2094,474.99463Q650.55896,473.29395,650.3973,471.92606Q650.324,471.24728,650.41876,470.6829Q650.5463,469.9788,650.9225,469.4821L651.12024,469.24875Q651.3314,469.02933,651.5864,468.8682Q652.1008,468.54446,652.7358,468.47464Q654.741,468.27286,656.46594,470.468Q657.41895,471.73514,658.2574,473.55432Q659.5059,476.326,660.6579,479.56342L653.64984,480.42877"/>
</g>
<g style="fill:rgb(255,255,255); fill-opacity:1.0; stroke-linejoin: miter">
<path d="M875.99066,555.70966L841.314,536.31836L673.32965,526.8945L679.35065,480.23688C772.75995,475.69788,831.3942,474.21356,855.2668,475.58112C875.61676,476.74734,886.5005,477.96664,888.262,478.32187C899.5953,480.60428,907.7938,482.93716,912.92596,486.01767C919.70996,490.08926,923.97675,496.56125,925.4576,505.8924L875.99066,555.70966 Z"/>
</g>
<g style="fill:rgb(0,0,0); fill-opacity:1.0; stroke-linejoin: miter">
<path d="M629.0383,432.66776L629.0383,432.66833L660.4517,465.77054L662.833,460.4772L629.0383,432.66776"/>
</g>
<g style="fill:rgb(0,0,0); fill-opacity:1.0; stroke-linejoin: miter">
<path d="M668.3552,421.45206L668.3552,421.45264L659.1345,466.1462Q656.7266,464.5261,654.3189,462.90598L668.3552,421.45206"/>
</g>
<g style="fill:rgb(0,0,0); fill-opacity:1.0; stroke-linejoin: miter">
<path d="M673.6447,463.92075L673.6447,463.92075C674.71094,467.6591,672.5449,471.55414,668.80664,472.62054L668.80664,472.62054C665.0683,473.68683,661.17316,471.52097,660.10675,467.7825L660.10675,467.78256C659.0404,464.04422,661.20654,460.14902,664.945,459.08267L664.9448,459.08267C668.68335,458.0164,672.57837,460.1826,673.6447,463.92075L673.6447,463.92075 M671.234,464.60843L671.234,464.6085C670.54736,462.20163,668.0395,460.80698,665.6326,461.49356L665.6326,461.49356C663.22565,462.18002,661.83093,464.68796,662.5175,467.09476L662.5175,467.09482C663.20416,469.5018,665.7122,470.8963,668.1191,470.20984L668.1189,470.20984C670.5259,469.52313,671.92053,467.01553,671.234,464.60843 Z"/>
</g>
<g style="fill:rgb(0,0,0); fill-opacity:1.0; stroke-linejoin: miter">
<path d="M659.78,467.06552L659.78,467.06552C660.8464,470.8038,658.6805,474.6988,654.942,475.76526L654.942,475.76526C651.2036,476.8316,647.30865,474.6656,646.2423,470.92728L646.2423,470.92734C645.17596,467.18893,647.3418,463.29385,651.0803,462.22745L651.0803,462.22745C654.8186,461.1611,658.7136,463.327,659.78,467.06552L659.78,467.06552 M657.3693,467.75314L657.3693,467.75314C656.6827,465.3461,654.1748,463.9517,651.768,464.63834L651.768,464.63834C649.36084,465.3248,647.9664,467.8326,648.6531,470.23953L648.6531,470.23965C649.33954,472.64655,651.8473,474.04102,654.2544,473.3545L654.2544,473.3545C656.66144,472.6679,658.05597,470.16013,657.3693,467.75314 Z"/>
</g>
<g style="fill:rgb(254,186,155); fill-opacity:0.99607843; stroke-linejoin: miter">
<path d="M669.8209,465.97458L669.8366,466.8218Q669.9221,469.44257,669.66095,471.34985Q669.561,471.95923,669.3841,472.40997L669.18304,472.81116L668.93384,473.11334L668.6317,473.30646L668.5303,473.34167Q668.411,473.38116,668.196,473.38605Q667.8385,473.38367,667.40356,473.22223L666.9528,473.02826Q666.4845,472.79822,665.9601,472.4525Q664.66296,471.61703,661.8954,469.22263Q662.5413,467.56387,663.07367,466.85922Q663.6303,466.1846,663.7943,466.11557Q664.0679,465.90958,664.3972,465.77316Q665.2675,465.44803,666.36835,465.50552Q667.6689,465.55765,669.8209,465.97458"/>
</g>
<g style="fill:rgb(254,186,155); fill-opacity:0.99607843; stroke-linejoin: miter">
<path d="M653.3928,475.23053L653.3928,475.23163Q651.4415,473.69635,650.7943,472.68085Q650.52527,472.27844,650.3582,471.83786L650.22314,471.38547Q650.1167,470.92227,650.1508,470.40665Q650.29333,468.93655,651.25116,467.60715Q651.5568,467.1912,651.9122,466.87204L652.2747,466.58725Q652.6471,466.33188,653.03845,466.23428L653.4779,466.1871Q653.9623,466.19662,654.4338,466.54935L654.85126,466.92984Q655.2638,467.37656,655.6606,468.0397L656.0541,468.74496Q656.4442,469.49844,656.8238,470.3961Q657.3966,471.6945,658.68646,475.36584L653.3928,475.23053"/>
</g>
<g style="fill:rgb(58,105,116); fill-opacity:1.0; stroke-linejoin: miter">
<path d="M609.0228,765.51794L606.2071,768.897L580.9173,799.4479Q573.1485,807.97754,568.93805,811.3691Q553.66174,823.9618,540.2324,827.22687Q529.17004,830.3842,516.6529,828.5265Q514.6245,828.4489,503.9788,825.5872Q476.10214,816.5139,474.29446,816.48627Q472.14468,815.69965,462.33755,814.6126Q450.52585,813.17865,425.91187,818.7808L423.13208,739.7754Q442.8824,733.3552,454.3229,733.3021Q465.48392,732.6857,490.9372,737.768L530.14667,706.3999L609.0228,765.51794 Z"/>
</g>
<g style="fill:rgb(0,0,0); fill-opacity:0.99607843; stroke-linejoin: miter">
<path d="M715.1789,481.52747L716.0393,481.3567Q725.121,479.51617,735.18646,484.34778Q745.3445,488.55936,752.98804,497.84958Q766.27936,516.7282,758.8059,537.7848Q752.9462,555.17004,737.93933,564.37915Q731.3764,568.05835,722.6886,569.3808Q712.6132,570.98676,694.2784,570.71985L683.96844,577.25836L715.1789,481.52747 Z"/>
</g>
<g style="fill:rgb(255,178,152); fill-opacity:1.0; stroke-linejoin: miter">
<path d="M677.94275,583.5474L677.94135,583.54846L689.995,573.5159L695.1742,570.6878C693.0801,566.8951,692.1579,563.46466,692.5925,560.4217C692.9997,557.5701,694.47864,554.6867,697.02783,551.90753C699.1993,549.54004,701.0214,548.1529,702.25574,547.4691C703.056,547.0259,703.81964,546.5281,704.6459,546.1629C709.9293,543.82794,712.6794,542.551,712.8611,542.2492C714.16064,541.56366,715.64734,540.4162,716.6666,538.4246C719.0079,533.851,718.54456,530.6394,716.1287,528.8764C715.49225,528.4125,714.2798,528.0785,712.3251,527.85565C711.66034,527.7803,708.58875,528.0287,703.044,528.65576C701.6931,528.8086,700.9947,528.5237,701.19946,528.07605C701.59106,527.2215,702.31476,526.5561,703.1103,525.9179C708.8936,521.28,712.7742,518.0602,714.717,516.22894C718.2821,512.8689,720.1207,510.69452,720.67206,510.03937C723.85425,506.2594,726.0185,501.62332,725.5218,495.90158C724.791,487.48972,721.3878,482.5487,716.61035,480.9312C707.15015,482.79736,701.20233,484.52356,698.6014,485.7896C695.717,487.19333,693.44806,489.4653,691.9459,492.934C680.26825,492.37387,673.6216,492.92355,671.6147,493.8726C669.13495,495.0457,669.11945,497.64743,671.87775,502.42618C667.9789,503.69202,665.7229,504.8042,664.9185,505.58057C664.0204,506.44727,663.7347,507.78857,664.23846,509.8003C663.2865,508.69678,662.1156,508.7166,660.80115,509.94366C659.6374,511.0296,657.9973,513.2778,655.8042,516.60724C652.0069,518.44794,649.3833,520.07715,648.151,521.6717C646.9596,523.2133,646.58417,524.52356,646.7995,525.4366C646.6536,527.0716,647.96265,530.3059,650.7259,535.13965L658.3291,541.57465L647.2157,562.14404L677.94275,583.5474 Z"/>
</g>
<g style="fill:rgb(0,0,0); fill-opacity:0.99607843; stroke-linejoin: miter">
<path d="M700.1213,507.70825L700.3075,507.17358Q701.6058,503.66766,701.55853,501.5165Q701.5432,501.03976,701.46674,500.58084Q701.4581,500.3428,701.12555,499.2371Q700.76666,498.13882,699.77594,496.26273Q700.2219,499.47043,700.26355,501.40768Q700.33685,503.2858,700.1213,507.70825 Z"/>
</g>
<g style="fill:rgb(0,0,0); fill-opacity:0.99607843; stroke-linejoin: miter">
<path d="M690.9198,506.92487L690.91876,506.92566L690.91797,506.92615L690.9198,506.92487 Z"/>
</g>
<g style="fill:rgb(255,255,255); fill-opacity:0.99607843; stroke-linejoin: miter">
<path d="M696.0093,506.0053L696.00903,506.00574L697.93896,499.63754Q696.7531,499.0875,696.0289,499.118Q695.3286,499.0939,693.666,499.65646L696.0093,506.0053 Z"/>
</g>
<g style="fill:rgb(0,0,0); fill-opacity:0.99607843; stroke-linejoin: miter">
<path d="M697.98364,499.6713L696.02496,501.44955L693.77826,499.78897Q694.62646,499.3121,695.0851,499.14114Q695.5421,498.983,695.62976,498.98Q695.8089,498.9446,695.9847,498.93918Q696.1593,498.93484,696.3308,498.96042Q696.41815,498.9584,696.8372,499.09238Q697.2545,499.23862,697.98364,499.6713 Z"/>
</g>
<g style="fill:rgb(58,105,116); fill-opacity:1.0; stroke-linejoin: miter">
<path d="M583.27856,779.4719L581.21356,781.1044Q551.7844,805.2844,524.1525,803.7424Q510.10522,802.1892,503.42404,798.8309Q499.09897,797.087,494.70676,794.9683L468.56424,781.77014Q460.0636,777.7047,452.2896,775.6527Q440.38876,771.9116,416.1193,773.01404L428.17438,694.88464Q463.30792,695.8002,495.157,705.6016L539.54395,682.12604L583.27856,779.4719 Z"/>
</g>
<g style="fill:rgb(255,255,255); fill-opacity:1.0; stroke-linejoin: miter">
<path d="M683.9599,586.07855L685.0931,584.12024C687.98346,579.10754,690.1385,576.1101,691.39734,574.9451C691.7489,574.6198,691.49225,574.18243,690.92,573.6643C690.4368,573.22675,687.50037,571.7025,681.9881,569.2155L648.8929,554.60535L642.6611,564.08386L613.4155,579.3973C592.99994,590.32764,590.7696,616.52313,581.1621,613.855L561.2309,630.13135L563.26855,609.2816C550.8173,626.6731,542.8076,639.5248,538.7116,647.57495C534.73096,655.3985,529.4366,669.7235,522.14557,690.41156C520.4782,695.1424,518.81726,697.40967,518.34576,697.68756C514.89575,703.2571,508.63086,703.18494,499.55148,697.47107C511.3153,724.5418,522.9268,742.9486,533.5345,753.56555C543.33704,763.3765,561.3242,773.94415,588.3719,784.4187C600.9439,750.67523,612.6321,723.8939,623.43634,704.0747L634.8481,685.35614L664.6927,643.5229C669.5426,635.91956,672.04175,631.3769,672.6541,630.08215C678.80524,617.0783,682.7238,602.4825,683.9599,586.07855 Z"/>
</g>
<g style="fill:rgb(152,216,255); fill-opacity:0.99607843; stroke-linejoin: miter">
<path d="M684.53394,580.1249L636.59686,562.5442Q574.52264,586.1649,557.50195,601.1205Q543.0495,613.44965,541.5779,616.6258Q537.1753,622.24854,533.5126,628.1662Q521.3864,649.0713,515.2901,656.62726Q507.39026,667.1365,494.16196,673.3939Q480.1836,679.1832,461.234,680.8155Q451.22278,682.05145,405.34503,683.6195Q396.84796,684.13135,389.84073,685.2377Q369.64328,688.9382,361.55142,697.8764Q353.45956,706.8146,349.4029,717.4986L383.32953,794.92834L418.3733,770.6146L615.57117,771.0099Q679.2728,651.95233,688.7725,622.8532Q702.2605,588.3241,684.53394,580.1249"/>
</g>
<g style="fill:rgb(254,186,155); fill-opacity:1.0; stroke-linejoin: miter">
<path d="M882.0263,1103.816L882.0263,1103.8173Q865.41797,1112.9922,858.8358,1114.8442Q853.3335,1116.446,852.32007,1116.4576Q850.2631,1116.9164,840.10297,1117.566Q837.44147,1118.1064,837.4758,1118.4578L837.1007,1118.9906Q836.87006,1119.6086,837.17725,1120.4901Q837.8233,1122.3083,840.245,1124.5277Q843.95605,1127.9935,850.24536,1129.9125Q854.804,1131.1697,861.3237,1130.9045Q868.0056,1130.6273,879.441,1128.5577Q896.6253,1129.2583,902.93097,1128.981Q913.2858,1128.4343,914.6154,1127.9199Q921.5561,1126.7499,924.78906,1123.5564L926.0739,1121.779Q927.08014,1119.8492,927.16,1117.4141Q927.4392,1108.8911,916.75684,1089.4293L882.0263,1103.816 Z"/>
</g>
<g style="fill:rgb(254,186,155); fill-opacity:1.0; stroke-linejoin: miter">
<path d="M873.5061,1091.8157L871.13837,1093.1068Q858.0811,1100.3472,850.31573,1102.8446Q848.09314,1103.5718,845.9357,1104.0485Q845.5205,1104.1595,843.52356,1104.5024Q841.43243,1104.9459,832.3522,1105.4738Q830.10583,1105.748,829.6314,1106.0427Q826.6358,1107.6956,831.7245,1112.5281Q835.0259,1115.1926,836.0801,1115.6069Q837.7759,1116.5546,839.72644,1117.2748Q843.0453,1118.6079,848.6702,1118.9121Q856.5404,1119.2349,870.9206,1116.5574L896.8735,1115.8612L873.5061,1091.8157 Z"/>
</g>
<g style="fill:rgb(254,186,155); fill-opacity:1.0; stroke-linejoin: miter">
<path d="M839.90857,1051.7948L839.90857,1051.7959L839.90857,1051.7948L839.90857,1051.7959 Z"/>
</g>
<g style="fill:rgb(0,0,0); fill-opacity:0.99607843; stroke-linejoin: miter">
<path d="M929.8484,1122.3813L929.13165,1118.0306C925.80334,1097.6747,924.36676,1080.2844,924.451,1065.8567C924.4623,1063.9629,924.3199,1056.5822,924.90375,1043.724C926.54047,1007.70105,927.48425,988.6323,927.5328,986.4951C927.76746,976.13727,927.6823,967.2519,927.26337,959.8122C927.13995,957.6274,926.61816,952.8044,925.4043,945.3525L918.71747,917.29785C918.3376,916.13837,917.5183,911.0388,916.30457,901.99426C914.4108,887.88745,913.35156,869.4603,914.0945,846.74445C914.6933,828.424,917.1779,814.2115,920.5366,804.06366L923.4149,794.4453C931.84296,781.92126,937.1397,771.86224,939.8153,764.445C942.45685,757.1224,945.13226,745.082,947.33575,728.1351C917.5293,657.17993,887.0623,652.8569,887.0623,652.8569C857.8054,648.7053,827.8389,711.1781,827.8389,711.1781C825.758,741.2651,824.5284,761.6171,824.15045,772.2355L823.3122,793.22064C826.8664,840.11774,830.3026,875.41644,834.0774,899.0453C838.50934,926.7877,845.4141,949.3942,854.33435,966.9412C858.0695,1009.2593,860.1485,1037.5674,860.94507,1051.8452C861.53973,1062.4991,861.35785,1075.4924,860.5516,1090.8789C860.37,1094.3438,860.74426,1096.8917,861.27277,1098.469C862.213,1101.2733,863.7908,1102.7421,865.6529,1103.5421C867.6021,1104.3801,872.1181,1105.2563,879.4948,1105.5729L884.3797,1043.8821L878.7858,1109.6747C886.49475,1119.1863,893.3821,1124.0131,899.1265,1125.569C904.091,1126.9131,914.1834,1126.3112,929.8484,1122.3813 Z"/>
</g>
<g style="fill:rgb(0,0,0); fill-opacity:0.99607843; stroke-linejoin: miter">
<path d="M876.6755,849.4192L876.6755,849.42035L876.6755,849.41974L876.6755,849.4192 Z"/>
</g>
<g style="fill:rgb(125,139,150); fill-opacity:0.99607843; stroke-linejoin: miter">
<path d="M865.4963,586.071L865.4966,586.0712L865.4966,586.0721L865.4963,586.071 Z"/>
</g>
<g style="fill:rgb(0,0,0); fill-opacity:0.99607843; stroke-linejoin: miter">
<path d="M883.0607,438.65457L883.08685,438.43887Q883.72565,414.5137,884.4135,410.70975Q884.891,406.40796,885.72943,403.0077Q889.2638,390.83978,889.8495,386.52048Q891.17145,377.50693,891.129,372.13177Q891.03796,360.45163,889.71564,355.6276Q889.0375,352.4323,887.95496,349.54553L886.75525,346.77533Q885.4352,344.11676,883.6847,341.91766Q880.1467,337.5271,875.33527,334.88025Q871.8932,332.44492,862.29767,330.7807Q855.7361,329.99884,848.08905,331.36563Q839.45447,332.89844,825.7529,337.83444Q820.86115,338.60794,818.5185,338.58258Q812.56885,339.71704,808.3387,330.5865Q804.027,339.08765,803.8404,343.4387Q802.73047,350.3497,809.6086,366.57098L838.57465,408.59964L883.0607,438.65457 Z"/>
</g>
<g style="fill:rgb(255,186,155); fill-opacity:0.99607843; stroke-linejoin: miter">
<path d="M887.4344,448.22787L887.4332,448.22946L883.6993,430.95682L883.5745,424.30893Q876.25385,424.4791,871.97327,421.53375Q868.0814,418.60858,865.78143,412.66312Q864.06384,407.51205,864.0738,405.12592Q863.96704,403.5836,864.01587,402.05725Q864.7004,392.31793,864.39044,391.81012Q864.3801,389.3269,862.5544,386.0145Q857.1912,379.18347,852.736,381.5723Q851.4781,382.00885,849.7327,384.8404Q848.9893,385.69128,845.692,394.5282Q844.7645,396.63052,844.15094,396.06824Q843.29156,394.73163,842.9918,393.0337Q840.53253,380.7475,839.3661,376.3862Q837.0633,368.43323,836.2884,367.21036Q833.3482,359.39322,824.6955,354.9926Q811.2535,350.1947,805.09393,356.08783Q800.48895,371.72296,800.555,376.61078Q800.19806,382.02124,804.2213,386.98416Q794.24677,404.0437,794.5555,407.78296Q793.9192,412.37662,803.23724,411.9814Q802.08356,418.8136,802.7593,420.5788Q803.2109,422.63837,806.6196,423.45834Q804.221,424.0205,804.9699,426.96594Q805.7474,429.54147,809.0207,435.4337Q808.8081,442.5625,810.08826,445.71823Q811.6082,448.6409,813.14453,449.03116Q815.48,450.53,824.88477,450.17038L835.2777,445.931L842.245,453.33218L887.4344,448.22787 Z"/>
</g>
<g style="fill:rgb(0,0,0); fill-opacity:0.99607843; stroke-linejoin: miter">
<path d="M805.65784,448.59793L805.6567,448.59824L805.65784,448.5994L805.6567,448.59824 Z"/>
</g>
<g style="fill:rgb(255,255,255); fill-opacity:1.0; stroke-linejoin: miter">
<path d="M880.535,704.6308L883.2827,708.921Q905.2477,743.7391,916.73615,747.442Q929.60956,752.9696,948.752,746.1364Q949.5367,741.1855,950.2762,736.20404Q954.52,708.9248,952.29913,688.20593Q952.12775,684.30426,949.54944,670.4692Q938.10077,620.9405,938.1562,619.2752Q937.1316,614.6377,935.2112,600.49567Q932.88416,582.3012,932.45306,530.9674Q931.47095,514.31134,930.82025,511.5805Q929.97986,502.7409,925.2824,490.05313Q924.52264,486.91995,917.28485,475.2476Q909.7327,463.93994,892.0661,448.31613L884.68805,431.90234L835.44794,449.4153L837.66815,464.12885Q813.26196,509.38757,811.1773,531.5988Q807.4142,555.80164,808.73535,581.5375Q808.06824,582.16473,814.9456,663.20776Q816.609,688.69336,816.60565,698.8718Q816.7096,721.30066,812.9434,731.15564Q831.49567,737.3482,842.9557,732.1906Q854.0254,728.506,880.535,704.6308 Z"/>
</g>
<g style="fill:rgb(0,0,0); fill-opacity:0.99607843; stroke-linejoin: miter">
<path d="M867.28046,1091.7284L867.28046,1091.7301L838.5633,1100.1075Q835.97504,1100.7102,833.5603,1101.4078Q832.3636,1101.7626,831.2753,1102.177Q825.5168,1104.0739,825.25867,1108.9877Q824.886,1110.8052,826.58704,1117.8047L883.345,1108.9015L867.28046,1091.7284 Z"/>
</g>
<g style="fill:rgb(0,0,0); fill-opacity:0.99607843; stroke-linejoin: miter">
<path d="M872.3995,1091.5392L871.11646,1092.8641Q862.1173,1102.1221,856.1508,1104.4471Q852.83075,1105.9822,849.2284,1106.8466Q847.1747,1107.3458,845.0006,1107.7361Q830.75726,1109.9789,830.2705,1110.3348Q825.4028,1111.5582,823.41925,1113.3776Q820.5861,1115.2471,821.5266,1121.1384Q823.03516,1126.6174,828.74023,1130.7997Q835.00397,1135.6738,850.9633,1135.6362Q852.3713,1135.6862,859.8528,1135.3801L910.79956,1133.0233Q917.09644,1133.4353,920.22375,1133.2118Q927.1078,1132.6271,929.2655,1129.9004Q932.31323,1126.9065,931.93176,1118.6393Q932.1544,1113.8914,927.5365,1093.2015L910.3784,1106.3193L872.3995,1091.5392 Z"/>
</g>
<g style="fill:rgb(0,0,0); fill-opacity:0.99607843; stroke-linejoin: miter">
<path d="M848.3995,1100.513L848.3998,1100.5133L848.3998,1100.5142L848.3995,1100.513 Z"/>
</g>
<g style="fill:rgb(98,179,177); fill-opacity:0.99607843; stroke-linejoin: miter">
<path d="M587.25824,350.34332L587.2583,350.34387L587.2583,350.34448L587.2583,350.34387L587.25824,350.34332L587.2583,350.34387L587.2583,350.34448Q587.2583,350.34387,587.25824,350.34332"/>
</g>
<g style="fill:rgb(0,0,0); fill-opacity:0.99607843; stroke-linejoin: miter">
<path d="M754.09595,481.71527L754.09454,481.71515L754.09595,481.71527L754.09454,481.71515 Z"/>
</g>
<g style="fill:rgb(60,70,79); fill-opacity:1.0; stroke-linejoin: miter">
<path d="M666.7864,624.3621C654.39996,640.7697,657.6515,664.1286,674.05945,676.51495L698.88275,676.5159L738.2644,591.53296C721.8566,579.13446,698.5101,582.38605,686.11163,598.7939L666.7864,624.3621 Z"/>
</g>
<g style="fill:rgb(0,0,0); fill-opacity:1.0; stroke-linejoin: miter">
<path d="M514.4978,836.37115L477.2636,836.3723L477.2636,950.929L514.4978,950.929L514.4978,836.37115 Z M514.4978,836.37115L477.2636,836.3723L477.2636,950.929L514.4978,950.929L514.4978,836.37115 Z M514.4978,836.37115L477.2636,836.3723L477.2636,950.929L514.4978,950.929L514.4978,836.37115 Z M514.4978,836.37115L477.2636,836.3723L477.2636,950.929L514.4978,950.929L514.4978,836.37115 Z"/>
</g>
<g style="fill:rgb(0,0,0); fill-opacity:1.0; stroke-linejoin: miter">
<path d="M525.5166,979.6058L468.25864,979.6066L468.2587,1087.1843L525.5167,1087.1846L525.5166,979.6058 Z M525.5166,979.6058L468.25864,979.6066L468.2587,1087.1843L525.5167,1087.1846L525.5166,979.6058 Z M525.5166,979.6058L468.25864,979.6066L468.2587,1087.1843L525.5167,1087.1846L525.5166,979.6058 Z M525.5166,979.6058L468.25864,979.6066L468.2587,1087.1843L525.5167,1087.1846L525.5166,979.6058 Z"/>
</g>
<g style="fill:rgb(60,70,79); fill-opacity:1.0; stroke-linejoin: miter">
<path d="M443.5291,714.18396L608.09283,714.1849L608.0928,676.9497L480.7633,676.9508C460.19727,676.9498,443.52914,693.6179,443.5291,714.18396 Z"/>
</g>
<g style="fill:rgb(0,0,0); fill-opacity:1.0; stroke-linejoin: miter">
<path d="M403.1935,773.13794L421.8106,773.1391L421.81055,745.2116C421.81042,733.2354,431.55524,723.492,443.53024,723.4919L667.32025,723.4929L667.3201,704.8747L443.52914,704.87604C421.28775,704.87476,403.19232,722.96906,403.19235,745.2115L403.1924,773.13794L403.19348,773.1391 Z"/>
</g>
<g style="fill:rgb(60,70,79); fill-opacity:1.0; stroke-linejoin: miter">
<path d="M579.261,795.901L579.26105,826.421C579.26105,838.72046,569.1952,848.78625,556.8961,848.7863L434.86658,848.78735C422.56732,848.7864,412.5015,838.7205,412.5015,826.42126L412.5014,795.90106L579.261,795.902 Z"/>
</g>
<g style="fill:rgb(0,0,0); fill-opacity:1.0; stroke-linejoin: miter">
<path d="M218.02559,953.81195L350.307,778.6871C356.47592,770.5207,369.90463,763.82996,380.1447,763.82996L608.09283,763.83093L738.2644,591.53296C742.3233,586.1714,748.7526,582.69604,756.0003,582.69604C768.28754,582.6971,778.2417,592.6502,778.2418,604.9375C778.24194,609.9638,776.55457,614.6063,773.7364,618.3299L630.2349,808.31256L383.6687,808.31396L253.49713,980.6089C249.43822,985.97046,243.00885,989.44604,235.76132,989.4458C223.47427,989.44604,213.52002,979.4916,213.51993,967.2044C213.51993,962.16486,215.20753,957.5356,218.02559,953.81195 Z"/>
</g>
<g style="fill:rgb(60,70,79); fill-opacity:1.0; stroke-linejoin: miter">
<path d="M361.31503,1076.5894C361.31503,1076.5951,632.4717,1076.5957,632.4717,1076.5957C632.4717,1076.59,648.35913,1076.5898,648.35913,1076.5898L648.3591,1129.5482C648.3589,1133.9362,644.80194,1137.4923,640.41486,1137.4923C636.0276,1137.4923,632.4707,1133.9363,632.4707,1129.5485L632.47076,1108.3702L361.31406,1108.3706L361.3141,1129.5477C361.31406,1133.9357,357.7571,1137.4918,353.36996,1137.4917C348.9828,1137.4917,345.42587,1133.9357,345.42593,1129.5477L345.42587,1076.5894L361.31503,1076.5903 Z"/>
</g>
<g style="fill:rgb(60,70,79); fill-opacity:1.0; stroke-linejoin: miter">
<path d="M422.8312,913.405L497.1028,913.40564L571.3745,913.4062Q571.37445,961.75037,571.3745,1010.0945Q497.1028,1010.0951,422.83118,1010.0956Q422.83118,961.75024,422.8312,913.405"/>
</g>
<g style="fill:rgb(255,0,0); fill-opacity:1.0; stroke-linejoin: miter">
<path d="M635.0463,686.5165L681.3134,683.714L727.5805,680.9116Q727.79706,684.48645,728.0136,688.0612Q681.74664,690.86475,635.47974,693.6684Q635.26306,690.0924,635.0463,686.5165"/>
</g>
<g style="fill:rgb(255,0,0); fill-opacity:1.0; stroke-linejoin: miter">
<path d="M634.9597,690.4452L654.9071,689.6934L674.8545,688.94165Q674.96,691.73737,675.06537,694.53296Q655.11804,695.2858,635.17065,696.0387Q635.0652,693.2419,634.9597,690.4452"/>
</g>
<g style="fill:rgb(255,0,0); fill-opacity:1.0; stroke-linejoin: miter">
<path d="M637.1614,693.8173L638.2539,693.7767L639.3464,693.736Q639.47894,697.25037,639.61145,700.7647Q638.519,700.8065,637.4265,700.8482Q637.2939,697.3328,637.1614,693.8173"/>
</g>
<g style="fill:rgb(255,0,0); fill-opacity:1.0; stroke-linejoin: miter">
<path d="M643.12335,694.22595L644.21594,694.1853L645.3085,694.14465Q645.441,697.65906,645.57355,701.1734Q644.48096,701.2152,643.38855,701.25696Q643.25586,697.7415,643.12335,694.22595"/>
</g>
<g style="fill:rgb(255,0,0); fill-opacity:1.0; stroke-linejoin: miter">
<path d="M649.5754,692.9182L650.6678,692.8776L651.7603,692.8369Q651.8929,696.3514,652.0254,699.8657Q650.93304,699.9075,649.84045,699.9492Q649.7079,696.4338,649.5754,692.9182"/>
</g>
<g style="fill:rgb(255,0,0); fill-opacity:1.0; stroke-linejoin: miter">
<path d="M655.5463,693.0907L656.6388,693.05L657.7312,693.0094Q657.8637,696.52374,657.9963,700.038Q656.9038,700.0798,655.8114,700.1216Q655.67883,696.60614,655.5463,693.0907"/>
</g>
<g style="fill:rgb(255,0,0); fill-opacity:1.0; stroke-linejoin: miter">
<path d="M660.782,692.7726L661.8746,692.73193L662.96716,692.69135Q663.0997,696.20575,663.23224,699.72015Q662.13965,699.76184,661.0472,699.8036Q660.9146,696.2881,660.782,692.7726"/>
</g>
<g style="fill:rgb(255,0,0); fill-opacity:1.0; stroke-linejoin: miter">
<path d="M666.9289,692.77264L668.02136,692.732L669.11383,692.6914Q669.2464,696.20575,669.37885,699.72015Q668.28644,699.7619,667.194,699.8036Q667.06146,696.28815,666.9289,692.77264"/>
</g>
<g style="fill:rgb(255,0,0); fill-opacity:1.0; stroke-linejoin: miter">
<path d="M671.7476,692.11884L672.84,692.07825L673.93243,692.0375Q674.0651,695.5518,674.1977,699.06604Q673.1052,699.108,672.01276,699.14966Q671.88007,695.6343,671.7476,692.11884"/>
</g>
<g style="fill:rgb(254,186,155); fill-opacity:1.0; stroke-linejoin: miter">
<path d="M742.29456,672.3281L695.6232,677.19653L681.9029,695.35486L747.4213,688.797L772.9262,668.99304L742.29456,672.3281 Z"/>
</g>
<g style="fill:rgb(255,255,255); fill-opacity:1.0; stroke-linejoin: miter">
<path d="M876.9148,541.8472L843.3618,563.1222L755.1535,706.39465L716.97943,678.90094C757.42676,594.5807,784.01624,542.30066,796.5769,521.95404C807.2845,504.60895,813.5345,495.616,814.6843,494.23575C822.08435,485.35306,828.03687,479.25165,833.18774,476.20306C839.99634,472.17328,847.719,471.4995,856.6315,474.63623L876.9148,541.8472 Z"/>
</g>
<g style="fill:rgb(0,0,0); fill-opacity:0.99607843; stroke-linejoin: miter">
<path d="M237.15085,855.4793L235.31616,855.29016Q222.47598,853.9412,216.95952,850.6895Q213.70044,849.029,210.7938,846.732Q209.13155,845.4267,207.48079,843.9592Q196.91165,834.15155,196.33102,833.9892Q192.35995,830.9197,189.70364,830.48566Q186.48285,829.4146,182.43405,833.7963Q179.0605,838.36957,179.3007,845.43915Q179.3426,853.37524,189.2393,865.89526Q190.07062,867.03284,194.9367,872.7237L228.28816,911.30853Q231.85751,916.5121,233.96674,918.83203Q238.6826,923.8812,242.15973,923.89105Q246.39722,924.4353,252.65916,919.0244Q256.52856,916.26385,269.93472,899.8423L249.01604,894.46704L237.15085,855.4793 Z"/>
</g>
<g style="fill:rgb(0,0,0); fill-opacity:0.99607843; stroke-linejoin: miter">
<path d="M-1.4261842,752.67523L-29.87854,752.6758L-58.330894,752.6763Q-58.330944,948.3443,-58.331,1144.0125Q-29.878635,1144.0131,-1.4262648,1144.0135Q-1.4262303,948.3444,-1.4261842,752.67523"/>
</g>
<g style="fill:rgb(0,0,0); fill-opacity:0.99607843; stroke-linejoin: miter">
<path d="M-59.025234,752.63336L45.640583,724.9562L103.822914,723.33057Q104.55109,777.76154,104.435455,821.5654Q104.71146,824.4164,102.805115,1071.2963L102.87048,1103.2378Q103.06514,1111.389,103.385956,1110.5963L-6.1280427,1141.4554L-59.025234,752.63336"/>
</g>
<g style="fill:rgb(0,0,0); fill-opacity:1.0; stroke-linejoin: miter">
<path d="M1.8200612,319.4638Q28.30676,308.6036,54.334263,348.41364Q79.05026,388.39743,90.647896,456.71594Q101.99756,527.33276,94.40444,598.93317Q85.29232,674.8227,59.423225,705.89734Q30.208647,738.5399,-2.4861777,697.2294Q-34.56915,653.9066,-47.28936,560.47174Q-58.14401,474.2822,-42.308857,400.47577Q-26.945839,334.192,1.7383202,319.50137 M-0.56508034,307.1978Q-35.02543,323.09592,-53.251427,393.79724Q-72.64937,473.8146,-60.830456,571.9014Q-46.71986,675.8138,-9.467357,719.88995Q26.980589,759.99146,61.94593,720.81Q92.757195,683.2025,102.93177,602.68854Q111.63558,526.32666,99.14722,449.88846Q86.49195,377.0384,58.900608,335.1573Q30.821053,294.43875,-0.38233417,307.1177 Z"/>
</g>
<g style="fill:rgb(25,56,68); fill-opacity:0.99607843; stroke-linejoin: miter">
<path d="M-70.987434,504.6837L-70.987434,504.6849L-70.987434,504.68393L-70.987434,504.6837L-70.987434,504.6849L-70.987434,504.6837L-70.987434,504.68393Q-70.987434,504.6837,-70.987434,504.6837 Z"/>
</g>
<g style="fill:rgb(0,0,0); fill-opacity:0.99607843; stroke-linejoin: miter">
<path d="M103.351585,723.97284L74.899216,723.9733L46.44684,723.9739Q46.44681,919.64197,46.446777,1115.31Q74.899155,1115.3107,103.35153,1115.3112Q103.35155,919.64197,103.351585,723.97284"/>
</g>
<g style="fill:rgb(0,0,0); fill-opacity:0.22352941; stroke-linejoin: miter">
<path d="M1133.0795,1131.841L1127.2158,1136.3152Q1085.5282,1149.8369,883.2602,1157.9435Q679.59265,1166.0436,403.59586,1164.5121Q140.19318,1162.3713,-17.731016,1151.9877Q-68.331635,1148.6311,-101.08992,1144.673L-128.62234,1140.6039Q-151.31157,1136.404,-151.56667,1131.8383Q-144.67888,1117.8264,36.56484,1108.5227Q217.80864,1099.2189,490.75528,1098.8658Q763.70215,1099.22,944.9468,1108.5247Q1126.1918,1117.8291,1133.0795,1131.841"/>
</g>
<g style="fill:rgb(0,0,0); fill-opacity:0.99607843; stroke-linejoin: miter">
<path d="M819.5788,381.47745L819.0442,381.2913Q815.53815,379.99292,813.3869,380.0402Q812.9102,380.05542,812.45135,380.13196Q812.21326,380.14056,811.1075,380.4731Q810.0093,380.83206,808.13306,381.8227Q811.3409,381.3767,813.2781,381.33514Q815.15625,381.26187,819.5788,381.47745 Z"/>
</g>
<g style="fill:rgb(0,0,0); fill-opacity:0.99607843; stroke-linejoin: miter">
<path d="M818.79535,390.6791L818.79614,390.68005L818.79663,390.68088L818.79535,390.6791 Z"/>
</g>
<g style="fill:rgb(255,255,255); fill-opacity:0.99607843; stroke-linejoin: miter">
<path d="M817.8758,385.58942L817.87616,385.5897L811.508,383.6598Q810.95795,384.84555,810.9884,385.56982Q810.96423,386.27008,811.5269,387.93286L817.8758,385.58942 Z"/>
</g>
<g style="fill:rgb(0,0,0); fill-opacity:0.99607843; stroke-linejoin: miter">
<path d="M811.54175,383.61514L813.3201,385.5738L811.65955,387.8205Q811.18256,386.9723,811.01154,386.51367Q810.85345,386.05658,810.8505,385.96896Q810.815,385.7899,810.8096,385.61404Q810.80536,385.43945,810.831,385.26794Q810.82886,385.18057,810.9628,384.76147Q811.10895,384.3442,811.54175,383.61514 Z"/>
</g>
<g style="fill:rgb(255,255,255); fill-opacity:0.99607843; stroke-linejoin: miter">
<path d="M61.0852,625.6598L61.085224,625.6602L61.08524,625.66064L61.0852,625.6598"/>
</g>
</g>
</svg>