<?xml version="1.0" encoding="UTF-8"?>
<svg enable-background="new 0 0 439.183 259.219" viewBox="0 0 439.183 259.219" xmlns="http://www.w3.org/2000/svg">
 <path d="m341.478,24.182c2.417-.242.953.638.512,1.535-58.558,19.369-114.551,41.297-173.924,59.851 6.16-4.389 13.963-5.889 20.973-8.185 36.026-11.795 71.45-25.169 107.424-37.854 14.989-5.287 30.209-9.886 45.015-15.347z" fill-rule="evenodd"/>
 <path d="m149.649,88.636c2.231,1.179 2.066,4.754 3.069,7.162-2.228-.5-3.09-2.366-4.604-3.581-16.8,5.14-34.193,11.754-51.666,17.393-5.382,1.737-11.078,5.616-16.369,3.581 4.645-3.95 11.091-4.72 16.881-6.65 16.588-5.529 34.733-12.271 52.177-17.904l.512-.001z" fill="#eff0f0" fill-rule="evenodd"/>
 <path d="m29.437 93.751c2.208 5.491 5.708 12.331 6.138 17.904-4.561-2.859-7.805-12.193-6.138-17.904z" fill="#a99a6f" fill-rule="evenodd"/>
 <path d="m53.479,101.425c-.507,1.368-1.054,2.697-1.023,4.604-1.612-.807-1.438-4.938 1.023-4.604z" fill-rule="evenodd"/>
 <path d="m55.014,115.236c-.299-3.523 2.492-5.576 5.627-4.092 3.921,4.353-3.317,8.554-5.627,4.092zm2.046,0c5.321-.763-1.885-4.537 0,0z" fill="#a99a6f" fill-rule="evenodd"/>
 <path d="m44.783 124.44c-11.549 3.494-37.881 16.109-41.946-2.558 9.778 1.034 17.83-2.124 26.088-4.092 1.567-2.866 4.204-4.663 8.185-5.115 2.278 4.201 5.337 7.621 7.673 11.765z" fill="#eff0f0" fill-rule="evenodd"/>
 <path d="m57.06 115.24c-1.885-4.537 5.321-0.763 0 0z" fill-rule="evenodd"/>
 <path d="m69.337 118.31c-2.54 1.247-7.144-1.69 0 0z" fill-rule="evenodd"/>
 <path d="m65.756,119.84c2.356-.481.981,2.77 2.046,3.581 .659-.705 2.222-.506 3.581-.511 .294.899-.618,3.005.512,3.069-.885,1.502-1.862-1.159-1.535-2.558-1.201.163-1.92.808-3.581.512 .315-2.231-2.847-3.372-1.023-4.093z" fill-rule="evenodd"/>
 <path d="m46.83,126.49c-3.367,2.986-9.479,3.591-15.347,5.115-10.109,2.627-21.23,6.447-28.646-1.534 4.124,1.418 8.686,3.889 14.323,3.581 10.277-.562 20.969-7.266 29.67-7.162z" fill="#eff0f0" fill-rule="evenodd"/>
 <path d="m127.653,152.067c-1.042,1.174-4.248.186-6.138.512 1.275-1.513 4.147-.951 6.138-.512z" fill-rule="evenodd"/>
 <path d="m179.83 190.43c2.593 12.239 22.226 11.746 34.785 10.743-12.405 3.803-33.465 2.858-34.785-10.743z" fill-rule="evenodd"/>
 <path d="m218.708,199.129c-1.602,10.021-28.447,12.779-35.296,4.093-3.909.031-10.106,2.856-11.254-1.534 2.274,1.733 8.199,1.082 11.254.511 7.482,8.242 30.216,4.885 35.296-3.07z" fill-rule="evenodd"/>
 <path d="m389.051,204.756c-17.199-.629-27.629,8.936-30.692,24.043 3.243,1.02 4.664,3.861 5.115,7.673 2.932.76 5.35.848 7.674,3.069 7.097,1.11 15.897-6.884 7.673-10.23 2.074-2.007 5.28,2.257 5.115,4.604-.221,3.135-6.088,7.436-11.254,7.162-3.756-.199-7.049-3.025-9.719-3.581-1.192-5.879-8.772-8.499-4.093-15.858-5.624,2.041-17.131,5.646-22.508,1.535-2.536.874-3.37,3.45-6.65,3.581-2.244-1.232-2.706-5.529-.512-7.162-2.008-.72-4.336-1.12-5.115-3.069-.189-8.912 12.896-13.631 19.95-8.696-8.466-2.055-18.115.111-18.927,8.696 .422,1.966 4.521.253 5.115,2.047 .815,3.202-2.091,2.683-1.534,5.627 2.593,1.722 4.855-1.269 6.649-2.047 7.386,2.332 17.739.449 23.531-2.046 6.807-8.127 13.696-18.571 30.182-15.348z" fill-rule="evenodd"/>
 <path d="m304.14 206.8c0.162 2.037-2.365 1.385-2.558 3.069-1.121-0.99 1.193-2.871 2.558-3.069z" fill-rule="evenodd"/>
 <path d="m388.539,208.337c-15.268-4.235-38.435,24.142-12.276,25.577 1.373-.75-1.3-4.438.512-5.627 2.871.092-1.119,4.284 1.534,6.139-29.854,3.517-6.419-35.668 10.23-26.089z" fill-rule="evenodd"/>
 <path d="m415.651,209.872c-.019,1.687-1.455,1.955-3.069,2.046 1.155,3.33 6.448,4.266 8.696,3.581-2.467,3.602-8.473-.556-9.72-3.069 .097-1.95 2.855-1.238 3.069-3.069-14.574-2.18 6.568,18.135 9.72,5.627-.351-1.798-3.902-.392-4.093-1.023 4.783-4.852 6.778,4.954 1.023,6.139-3.572.735-12.056-3.494-12.789-6.65-.94-4.058 2.879-10.293 7.163-3.582z" fill-rule="evenodd"/>
 <path d="m344.547,208.849c.595-.083.91.113 1.023.512-.344,3.854-6.789,8.269-9.72,4.604 4.06,1.405 8.408-1.071 8.697-5.116z" fill-rule="evenodd"/>
 <path d="m224.846,210.383c.736.287 1.248.799 1.535,1.535-.443,4.776-7.406.138-8.696,3.581 .943,5.165 8.814-1.241 9.719,2.558-3.698.952-9.011,1.903-10.743-1.535-.583-4.101 4.174-4.645 7.162-3.58 1.118-.077 1.098-1.29 1.023-2.559z" fill-rule="evenodd"/>
 <path d="m306.692,219.079c-1.77.065-.746-2.663-2.046-3.069-1.614-.25-1.807.922-3.581.512 1.563-2.884 6.34-1.184 5.627,2.557z" fill-rule="evenodd"/>
 <path d="m413.605,235.96c-1.71-1.018-3.654-1.802-3.581-4.604 1.279-1.789 5.312-.825 6.139-3.069-.864-3.229-3.567-4.617-7.674-4.604-.621,2.959-1.718,5.442-6.138,4.604-2.018-2.609-.588-6.754 1.022-8.696 12.505-6.428 25.366,13.041 10.232,16.369zm6.138-6.649c1.36-8.845-18.797-14.902-16.881-2.558 4.248.761 3.756-2.677 4.093-4.604 5.924-.297 9.238,2.016 10.23,6.65-.405,2.663-4.303,1.836-5.627,3.581 2.457,4.852 7.797-.549 8.185-3.069z" fill-rule="evenodd"/>
 <path d="m411.559,232.38c1.324-1.745 5.222-.918 5.627-3.581-.992-4.635-4.307-6.947-10.23-6.65-.337,1.928.155,5.365-4.093,4.604-1.916-12.345 18.241-6.287 16.881,2.558-.389,2.52-5.729,7.921-8.185,3.069z" fill="#a99a6f" fill-rule="evenodd"/>
 <path d="m321.016,234.938c-1.749.032-5.957-1.878-9.207-2.047 2.424-2.444 7.53.421 9.207,2.047z" fill-rule="evenodd"/>
 <path d="m29.948,92.217c6.268-21.835 26.481,3.158 35.297,7.673 29.926-10.654 62.603-22.078 94.124-33.25 4.583-1.624 9.021-4.69 12.789-5.115 2.301-.26 5.146.8 7.673.512 4.297-.491 9.104-3.844 14.323-5.116 6.928-1.687 14.701-1.284 20.462-3.069 5.761-1.786 10.105-6.291 14.323-8.696 8.128,6.562 14.062-2.895 17.393-8.696 21.096,2.479 36.452-5.13 47.062-14.835 5.892,5.399 14.693-1.701 15.347-6.138 11.953,1.967 18.876-3.478 27.623-8.696 9.41-5.614 20.438-11.205 26.089-1.535 .676,8.138-1.015,14.123 1.534,18.927 1.766,3.328 7.352,4.234 9.72,7.673 3.128,4.544 2.921,8.13 4.092,14.835-68.7,24.401-136.784,49.413-206.151,73.15-7.285-9.255-14.166-18.914-23.531-26.089-21.144,7.162-42.353,14.257-63.431,21.485 3.078,5.607 9.103,8.839 14.323,12.277 37.95,24.992 83.951,41.647 136.582,53.712 28.096,6.44 61.153,12.358 94.123,14.835 16.357,1.228 33.795,2.104 50.643,3.58 16.007,1.402 34.894,1.75 47.062,7.162 5.453,2.425 11.771,8.774 11.766,15.857-.014,16.159-16.363,24.619-29.67,29.158-13.451,4.588-26.589,6.51-43.481,7.161-35.019,1.352-67.651-3.161-99.75-10.23-30.651-6.75-60.339-15.744-87.474-26.601-55.893-22.362-106.857-48.28-136.07-91.566-12,4.596-48.549,13.363-41.949-10.742 2.624-.041 5.268.59 7.673.511 9.762-.317 18.138-4.037 24.554-7.673-2.323-4.668-4.343-9.64-5.627-15.346-1.915,4.862 3.536,12.089 3.069,13.812-3.629-2.798-9.29-17.632-.512-18.927zm341.199-60.874c-4.736-2.767-8.8-6.206-12.277-10.23-1.786-3.877-1.299-14.072-1.534-19.95-19.611,1.362-24.338,17.609-46.551,16.369-2.613,5.18-10.823,10.566-17.393,5.627-8.589,11.57-25.736,17.182-46.039,15.346-3.882,5.181-9.607,14.042-17.904,8.696-6.88,9.135-19.5,8.171-33.25,11.254-5.647,1.267-10.849,5.064-15.346,5.627-3.276.41-6.648-1.063-9.719-.511-3.655.657-8.163,3.639-12.277,5.115-30.565,10.966-62.212,22.651-92.589,31.716 3.798,4.045 7.98,7.707 12.789,10.742 92.246-31.542 184.942-65.375 276.232-96.17-16.218,7.176-33.305,12.461-50.131,18.416-51.228,18.127-102.367,36.06-152.951,54.223 1.257,10.866 9.512,13.985 14.323,20.973 2.245,3.26 2.725,6.471 5.627,9.719 54.669-19.504 109.651-38.696 164.205-58.316 3.642-7.442 7.826-14.34 12.277-20.973-2.958,6.934-8.842,13.665-10.231,20.462 7.825-3.088 16.037-5.789 24.043-8.696 2.929-4.574 5.179-9.826 8.696-13.812-.439,2.132-3.577,4.248-2.558,6.139 1.068-.997 1.843-4.952 3.068-4.092-1.254,3.16-6.168,7.606-4.604,10.231 2.596-1.667 3.114-5.412 5.627-7.162-.62,2.108-2.322,3.134-2.558,5.627 2.841-.229 5.208-.93 6.65-2.558-.209-4.192-3.358-6.003-3.069-5.116 1.93-3.771-2.114-5.625-2.556-8.696zm24.042,213.825c8.192-1.061 16.541-3.506 24.043-3.069 8.553-4.169 19.921-12.121 17.392-24.042-2.371-11.181-28.563-13.381-40.923-14.835-11.742-1.382-24.729-1.736-37.343-2.558-45.152-2.941-85.992-9.417-124.816-18.416-33.512-7.768-67.696-19.148-94.635-31.204-17.741-7.939-39.247-18.253-52.688-30.692-5.435-5.028-13.523-12.364-22.508-19.438-4.9-3.858-20.633-16.721-26.089-15.858-2.349.372-3.318,2.207-5.115,4.093 .262,9.024 2.768,14.795 6.65,21.996 8.017,14.87 20.012,27.645 31.204,37.342 49.007,42.465 116.28,69.479 187.736,85.939-3.587-1.66-5.661-11.904 4.092-10.23 3.174,1.635-2.567,4.251 1.023,4.604 3.93-.321 6.296-2.734 5.627-5.115-1.783-6.348-11.934-.776-20.462-1.535-6.396-.569-10.521-2.772-13.812-3.58-2.373.498-6.096,4.021-7.162,0 10.828-1.818 23.845,4.195 37.854,1.022 7.047,1.753 5.304,12.509-4.092,10.231-1.97-1.81 1.866-4.262-.512-4.604-3.712-.301-4.737,2.084-5.116,5.115 1.604,3 5.771,3.437 9.72,4.093-.896.468-2.553.176-3.069,1.023 39.098,8.474 88.239,15.514 133.001,9.718zm-246.051-156.532c-17.444,5.633-35.589,12.375-52.177,17.904-5.79,1.93-12.236,2.701-16.881,6.65 5.292,2.035 10.987-1.844 16.369-3.581 17.473-5.639 34.866-12.252 51.666-17.393 1.514,1.215 2.376,3.081 4.604,3.581-1.003-2.408-.838-5.983-3.069-7.162l-.512.001zm-113.563,23.02c-.43-5.573-3.93-12.414-6.138-17.904-1.667,5.71 1.577,15.044 6.138,17.904zm1.535,1.023c-3.981.452-6.617,2.25-8.185,5.115-8.259,1.968-16.311,5.126-26.088,4.092 4.065,18.667 30.397,6.052 41.946,2.558-2.336-4.144-5.395-7.564-7.673-11.765zm-19.95,20.973c-5.637.308-10.199-2.163-14.323-3.581 7.416,7.981 18.537,4.161 28.646,1.534 5.868-1.524 11.98-2.129 15.347-5.115-8.701-.104-19.393,6.6-29.67,7.162zm149.882,74.685c29.64,14.183 65.303,22.342 99.751,31.716-46.094-8.881-88.128-23.273-125.328-42.458-32.18-16.596-63.583-35.046-86.451-60.362-2.302-2.548-5.34-11.35-10.743-6.65 .827.571 1.837,3.574 2.558,2.558-.532-.208-1.796-1.983 0-1.535 50.865,57.863 128.86,91.172 215.871,111.517 12.706,2.971 25.988,4.147 38.877,8.185-52.999-7.962-101.558-22.328-144.255-41.435-42.576-19.054-81.708-41.908-109.981-75.709 15.6,22.356 38.643,40.65 63.943,54.735 50.318,28.013 107.959,50.457 174.948,62.408 33.641,6.002 75.502,9.575 109.981,2.558 13.689-2.786 31.16-9.645 36.319-19.438-9.602,10.69-27.433,13.349-46.551,15.346-41.88,4.375-87.596-2.501-118.678-9.719 43.151,7.42 101.577,15.945 146.812,3.069-90.98,16.753-183.263-12.546-247.073-34.786z" fill-rule="evenodd"/>
 <path d="m348.64,55.386c-.538-2.763 3.353-5.506 4.092-8.696 2.635-1.972-3.209,6.388-4.092,8.696z" fill-rule="evenodd"/>
 <path d="m373.705,40.04c-.289-.888 2.86.923 3.069,5.116-1.442,1.627-3.81,2.329-6.65,2.558 .235-2.493 1.938-3.519 2.558-5.627-2.513,1.75-3.031,5.494-5.627,7.162-1.564-2.625 3.35-7.071 4.604-10.231-1.226-.859-2,3.096-3.068,4.092-1.02-1.891 2.118-4.006 2.558-6.139-3.518,3.986-5.768,9.238-8.696,13.812-8.006,2.907-16.218,5.608-24.043,8.696 1.39-6.797 7.273-13.528 10.231-20.462-4.451,6.633-8.636,13.531-12.277,20.973-54.554,19.62-109.536,38.812-164.205,58.316-2.902-3.248-3.382-6.459-5.627-9.719-4.811-6.988-13.066-10.107-14.323-20.973 50.582-18.164 101.721-36.097 152.949-54.224 16.826-5.954 33.913-11.24 50.131-18.416-91.29,30.795-183.987,64.628-276.232,96.17-4.809-3.035-8.99-6.697-12.789-10.742 30.376-9.065 62.024-20.75 92.589-31.716 4.114-1.476 8.623-4.458 12.277-5.115 3.071-.552 6.443.921 9.719.511 4.497-.562 9.699-4.36 15.346-5.627 13.75-3.083 26.37-2.119 33.25-11.254 8.296,5.345 14.022-3.516 17.904-8.696 20.303,1.836 37.45-3.776 46.039-15.346 6.569,4.939 14.779-.447 17.393-5.627 22.213,1.24 26.939-15.007 46.551-16.369 .235,5.878-.252,16.073 1.534,19.95 3.478,4.024 7.541,7.463 12.277,10.23 .442,3.071 4.486,4.925 2.558,8.697zm-20.974,6.65c-.739,3.189-4.63,5.933-4.092,8.696 .884-2.308 6.728-10.668 4.092-8.696zm-56.269-7.162c-35.974,12.685-71.398,26.059-107.424,37.854-7.01,2.295-14.813,3.796-20.973,8.185 59.373-18.553 115.367-40.482 173.924-59.851 .441-.896 1.905-1.777-.512-1.535-14.805,5.462-30.025,10.061-45.015,15.347zm45.016,17.904c5.074-6.181 9.869-15.366 12.789-21.997-4.022,7.574-8.659,14.533-12.789,21.997zm11.765-4.092c2.156-4.326 5.978-9.707 7.161-13.3-2.188,4.293-6.653,9.03-7.161,13.3zm-43.993.512c-3.847,6.213-7.484,12.636-11.254,18.927 4.655-4.741 9.187-15.005 11.254-18.927zm-25.576,2.557c-5.258,9.066-10.91,17.736-15.858,27.111 5.905-7.744 12.606-20.12 15.858-27.111zm12.276,8.696c-2.27,3.357-4.398,6.855-6.139,10.742 2.471-2.522 5.936-9.346 6.139-10.742zm-5.627,3.581c-1.166,1.223 3.166-2.715 1.535-3.581-.424,1.281-1.401,2.009-1.535,3.581zm3.581,5.627c2.389-1.104 4.745-7.42 4.604-7.673-1.639,2.453-3.265,4.919-4.604,7.673zm-13.3,4.604c3.052-3.089 6.237-8.763 7.161-12.277-2.134,4.345-4.842,8.116-7.161,12.277zm-46.55-3.581c.469-1.934 3.553-3.929 2.558-5.627-.631,1.773-3.223,4.259-2.558,5.627zm51.154,2.558c1.244-2.514 4.239-5.981 4.093-8.185-1.007,2.752-4.466,5.755-4.093,8.185zm-58.316-1.535c-.094-2.16 2.91-3.885 2.046-5.116-.38,1.686-3.207,3.588-2.046,5.116zm53.712-3.581c-1.474,2.619-3.019,5.167-4.604,7.673 2.418-1.074 5.004-7.161 4.604-7.673zm-7.673,9.208c.799-2.621 3.938-5.6 3.581-7.673-.603,2.816-4.422,5.115-3.581,7.673zm-42.97,5.116c1.727-3.733 5.584-8.052 6.138-11.254-1.806,3.652-5.773,7.861-6.138,11.254zm-17.903,2.046c.687-2.732 4.016-5.521 3.581-7.673-.7,2.72-4.084,5.454-3.581,7.673zm-14.835,18.927c4.58-6.334 9.702-14.851 12.277-21.485-3.797,7.457-8.704,13.804-12.277,21.485zm25.065-8.185c2.073-3.898 5.932-8.729 6.65-12.277-1.763,4.208-6.117,8.542-6.65,12.277zm-20.461,6.65c2.226-4.768 6.701-10.006 7.673-14.323-2.426,4.568-6.885,9.823-7.673,14.323zm16.369-5.627c2.344-1.415 4.246-5.976 4.604-7.673-1.586,2.507-3.131,5.054-4.604,7.673zm-12.789,4.092c2.336-.913 3.948-5.248 4.093-6.65-1.257,2.325-2.761,4.402-4.093,6.65zm9.72-2.557c.281-1.282 2.389-3.369 1.534-4.092-.133,1.43-2.873,2.885-1.534,4.092zm-4.604,1.023c.088-1.476 2.722-3.036 1.535-4.092-.089,1.475-2.723,3.035-1.535,4.092z" fill="#eff0f0" fill-rule="evenodd"/>
 <path d="m354.27 35.436c-2.92 6.631-7.715 15.816-12.789 21.997 4.13-7.465 8.767-14.424 12.789-21.997z" fill-rule="evenodd"/>
 <path d="m360.4 40.04c-1.184 3.594-5.005 8.974-7.161 13.3 0.508-4.27 4.973-9.007 7.161-13.3z" fill-rule="evenodd"/>
 <path d="m298 72.778c3.77-6.291 7.407-12.714 11.254-18.927-2.067 3.923-6.599 14.187-11.254 18.927z" fill-rule="evenodd"/>
 <path d="m267.82 83.521c4.948-9.375 10.601-18.045 15.858-27.111-3.251 6.99-9.952 19.366-15.858 27.111z" fill-rule="evenodd"/>
 <path d="m289.81 75.848c1.74-3.887 3.869-7.385 6.139-10.742-0.204 1.395-3.669 8.219-6.139 10.742z" fill-rule="evenodd"/>
 <path d="m291.858,65.105c1.631.865-2.701,4.804-1.535,3.581 .134-1.572 1.111-2.3 1.535-3.581z" fill-rule="evenodd"/>
 <path d="m298.508,66.64c.142.253-2.215,6.569-4.604,7.673 1.339-2.754 2.965-5.22 4.604-7.673z" fill-rule="evenodd"/>
 <path d="m287.77 66.64c-0.924 3.514-4.109 9.188-7.161 12.277 2.318-4.161 5.026-7.932 7.161-12.277z" fill-rule="evenodd"/>
 <path d="m236.611,69.709c.995,1.698-2.089,3.693-2.558,5.627-.664-1.368 1.928-3.854 2.558-5.627z" fill-rule="evenodd"/>
 <path d="m289.3 69.709c0.146 2.203-2.849 5.67-4.093 8.185-0.373-2.43 3.086-5.433 4.093-8.185z" fill-rule="evenodd"/>
 <path d="m228.94 71.244c0.863 1.231-2.141 2.956-2.046 5.116-1.161-1.529 1.666-3.431 2.046-5.116z" fill-rule="evenodd"/>
 <path d="m276,80.452c1.586-2.506 3.131-5.054 4.604-7.673 .4.511-2.186,6.598-4.604,7.673z" fill-rule="evenodd"/>
 <path d="m276.512,74.313c.356,2.073-2.782,5.052-3.581,7.673-.841-2.558 2.978-4.857 3.581-7.673z" fill-rule="evenodd"/>
 <path d="m236.1,75.848c-.554,3.202-4.412,7.521-6.138,11.254 .364-3.393 4.331-7.602 6.138-11.254z" fill-rule="evenodd"/>
 <path d="m215.638,81.475c.435,2.152-2.894,4.941-3.581,7.673-.502-2.219 2.882-4.953 3.581-7.673z" fill-rule="evenodd"/>
 <path d="m291.858,203.733c-1.531-1.016 1.315-2.836.511-5.627-2.373-8.242-26.137-4.607-26.088,3.069-.369,2.927 2.927,2.188 2.558,5.115-1.409.467-2.813.938-3.069,2.558 .553,3.106 7.059,5.847 9.208,2.558-1.526-1.971-3.403-2.207-4.093-4.092-3.858-10.556 16.762-16.319 18.927-6.65-1.361,2.362-6.278,1.674-7.673,0-1.28-.087-1.602.786-2.046,1.534 .431,3.357 7.627,3.229 9.208,1.023-.284,7.859-17.733-1.438-6.139-4.093 1.902-.538 1.003,1.726 2.046,2.047 1.928.393 2.445-.624 4.093-.512 .784-5.733-7.265-2.984-9.72-4.093-6.387,1.947-11.621,10.291-3.581,14.323-1.183,6.438-10.704,2.054-11.254-1.534-.347-2.263 2.438-1.964 2.558-4.093 .075-1.332-2.245-2.566-2.046-4.092 1.461-11.19 34.251-12.719 26.6,2.559z" fill-rule="evenodd"/>
 <path d="m209.5 86.59c-2.576 6.634-7.697 15.151-12.277 21.485 3.573-7.681 8.48-14.028 12.277-21.485z" fill-rule="evenodd"/>
 <path d="m228.938,87.613c-.719,3.548-4.577,8.379-6.65,12.277 .533-3.735 4.887-8.069 6.65-12.277z" fill-rule="evenodd"/>
 <path d="m209.5,92.217c-.972,4.317-5.447,9.556-7.673,14.323 .788-4.5 5.247-9.755 7.673-14.323z" fill-rule="evenodd"/>
 <path d="m222.8,93.24c-.358,1.697-2.26,6.258-4.604,7.673 1.473-2.619 3.018-5.166 4.604-7.673z" fill-rule="evenodd"/>
 <path d="m39.668,97.333c1.89-2.58 6.923-3.383 9.719-1.023 .435,3.468 2.414,5.981-.512,7.673-2.843.626-2.089-2.344-3.069-3.581 1.116-1.411.931,2.786 2.046,3.069 5.04-6.833-5.755-10.052-7.673-4.092-.38,1.182.271,2.873.512,4.092 .476,2.405-.902-.512-1.023-1.023-.297-1.253.184-1.953 0-5.115z" fill-rule="evenodd"/>
 <path d="m209.5,98.355c-.145,1.402-1.756,5.737-4.093,6.65 1.332-2.248 2.836-4.325 4.093-6.65z" fill-rule="evenodd"/>
 <path d="m216.661,98.355c.855.724-1.253,2.81-1.534,4.092-1.339-1.206 1.401-2.661 1.534-4.092z" fill-rule="evenodd"/>
 <path d="m212.06 99.378c1.188 1.057-1.447 2.617-1.535 4.092-1.188-1.056 1.446-2.616 1.535-4.092z" fill-rule="evenodd"/>
 <path d="m262.188,235.449c.517-.848 2.173-.556 3.069-1.023-3.948-.656-8.115-1.093-9.72-4.093 .379-3.031 1.404-5.416 5.116-5.115 2.378.343-1.458,2.795.512,4.604 9.396,2.277 11.139-8.479 4.092-10.231-14.009,3.173-27.026-2.841-37.854-1.022 1.066,4.021 4.789.498 7.162,0 3.29.808 7.415,3.011 13.812,3.58 8.528.759 18.679-4.812 20.462,1.535 .669,2.381-1.697,4.794-5.627,5.115-3.591-.353 2.15-2.969-1.023-4.604-9.753-1.674-7.679,8.57-4.092,10.23-71.456-16.46-138.729-43.475-187.736-85.939-11.192-9.697-23.188-22.472-31.204-37.342-3.882-7.201-6.388-12.972-6.65-21.996 1.797-1.886 2.767-3.721 5.115-4.093 5.456-.863 21.188,12 26.089,15.858 8.985,7.075 17.073,14.41 22.508,19.438 13.442,12.439 34.947,22.753 52.688,30.692 26.939,12.056 61.123,23.437 94.635,31.204 38.824,8.999 79.664,15.475 124.816,18.416 12.613.821 25.601,1.176 37.343,2.558 12.359,1.454 38.552,3.654 40.923,14.835 2.529,11.921-8.839,19.873-17.392,24.042-7.502-.437-15.851,2.009-24.043,3.069-44.762,5.797-93.903-1.243-133.001-9.718zm3.07-34.273c-.199,1.525 2.121,2.76 2.046,4.092-.119,2.129-2.904,1.83-2.558,4.093 .55,3.588 10.071,7.972 11.254,1.534-8.04-4.032-2.806-12.376 3.581-14.323 2.455,1.108 10.504-1.641 9.72,4.093-1.647-.112-2.165.904-4.093.512-1.043-.321-.144-2.585-2.046-2.047-11.595,2.655 5.854,11.952 6.139,4.093-1.581,2.205-8.777,2.334-9.208-1.023 .444-.748.766-1.621 2.046-1.534 1.395,1.674 6.312,2.362 7.673,0-2.165-9.669-22.785-3.905-18.927,6.65 .689,1.885 2.566,2.121 4.093,4.092-2.149,3.289-8.655.549-9.208-2.558 .256-1.62 1.66-2.091 3.069-2.558 .369-2.927-2.927-2.188-2.558-5.115-.049-7.677 23.715-11.312 26.088-3.069 .805,2.791-2.042,4.611-.511,5.627 7.651-15.28-25.139-13.751-26.6-2.559zm-225.59-98.728c.121.511 1.499,3.428 1.023,1.023-.241-1.219-.892-2.911-.512-4.092 1.918-5.959 12.713-2.74 7.673,4.092-1.115-.283-.931-4.479-2.046-3.069 .98,1.236.227,4.207 3.069,3.581 2.926-1.691.946-4.205.512-7.673-2.796-2.36-7.829-1.557-9.719,1.023 .184,3.162-.297,3.862 0,5.115zm12.789,3.581c-.031-1.907.516-3.236 1.023-4.604-2.462-.334-2.636,3.797-1.023,4.604zm10.742,0c-2.91.671-5.838,1.323-8.185,2.558 3.946.577 5.559-2.887 9.208-1.023 1.563-4.211-5.481-4.839-8.696-3.069 .455-1.527-.521-4.188-1.535-2.558 .632,6.02 7.324-.169 9.208,4.092zm0,7.673c-.102-2.883-4.249-4.38-7.673-3.581-6.318,8.047 7.921,10.59 7.673,3.581zm6.138,4.604c-7.144-1.69-2.54,1.247 0,0zm-4.604,7.673c-1.607-1.739-1.05-3.7-1.023-5.115-1.251.897-1.208,3.085-.512,4.604h-2.046c-1.163-3.904 2.343-5.825 2.046-7.162-4.372.932-3.791,11.477 1.535,7.673zm8.185.511c5.308-.53.677-7.83-1.535-6.65 2.196,1.124 4.263,4.838 1.535,6.65zm-6.139-2.557c1.661.296 2.38-.349 3.581-.512-.327,1.399.649,4.06 1.535,2.558-1.13-.063-.217-2.17-.512-3.069-1.359.005-2.921-.193-3.581.511-1.065-.811.31-4.062-2.046-3.581-1.824.721 1.338,1.862 1.023,4.093zm3.581,8.184c5.824,1.07 13.369-8.199 18.416-3.069-5.431-6.36-12.959,2.882-18.416,2.046-1.981-.303-3.546-4.384-5.115-2.558 3.346.56 2.361,3.075 5.115,3.581zm8.697,5.115c1.116-2.294 1.519-5.302 5.115-5.115-.685,2.901 1.724,2.71 3.069,3.581-.532,2.407 1.179,2.572 2.046,3.581 4.341.295 3.61-7.037 1.023-8.185 1.066,1.989 2.35,7.876-2.046,7.162-.704-1.549.244-1.828 0-4.093-1.498-.459-1.572-.459-3.069,0 .405-1.769-.568-2.159-1.023-3.069-4.032-.11-4.745,3.098-6.65,5.116-2.969-.834-4.149-.172-6.139,1.022-3.397-1.377-7.163-2.385-6.65-7.673-2.723,6.833 8.434,10.226 14.324,7.673zm16.369,7.674c-1.229-.477-1.354-2.057-3.581-1.535-.881.824-2.403,1.007-3.069,2.046-.209,1.232.934,1.112.511,2.558 1.198,1.503 3.315,1.299 4.604,1.535 2.307,8.564 15.859,6.966 22.508,3.581-4.607-2.07-7.938-2.978-11.765-5.116-3.161,1.35-4.614-.867-5.627-3.068-.406,3.775 2.986,5.459 6.138,4.092 .823,4.367 6.861.549 8.185,4.604-6.708,1.256-17.619,2.369-18.416-5.115-1.218-.998-4.745.312-5.116-1.534 .215-1.831 1.631-2.462 3.581-2.558 1.442.092.638,2.431 2.558,2.046 .253-5.81 4.34-11.754 10.742-8.185 1.089,2.369.729,6.105-3.069,5.115-.852-.683-.171-2.898-1.023-3.581-1.36.874-4.303,2.835-3.581,4.093 1.087-.788 1.905-1.847 3.069-2.558 .329,1.547.799,2.952 2.558,3.069 1.931.226 2.401-1.009 3.581-1.535 .979-10.733-14.533-5.792-12.788,2.046zm26.089,7.673c1.89-.326 5.096.662 6.138-.512-1.991-.439-4.863-1.001-6.138.512zm-7.674,6.65c.304-3.023 6.126-5.69 5.116-6.649-4.333,2.048-5.952,6.913-6.65,11.254-1.855-.7-2.94-3.15-5.627-1.535 .188,4.928 3.778,6.453 7.673,7.674 .114,2.19-1.702,2.085-.512,4.092 2.819,2.925 7.613.595 11.254,0 .57,10.247 14.328-.317 20.973-1.022 .098,1.606.951,2.459 2.558,2.558 4.578-2.264 8.229-7.728 15.346-6.65 10.055,1.522 8.835,18.619-1.535,14.323 .167-2.391 2.651-2.464 2.558-5.115-1.697-4.055-9.677-2.69-10.742,1.022 .345,2.896 4.008,2.472 3.581,6.139-2.532-.314-3.273,1.16-5.115,1.535-.77,3.102.501,5.108 3.581,5.627 2.354.137 2.288-2.146 4.092-2.558 7.404,5.803 15.156-2.827 17.904-8.185 1.371-11.652-6.91-17.564-15.858-18.416-5.102-.485-9.917,2.678-14.323.512-.041-1.916 2.205-1.546 1.535-4.093-1.038-1.689-4.219-1.237-6.139-2.046-2.946,2.085-1.057,9.003 1.535,8.185-4.1-1.379-1.147-8.874 3.069-6.139 1.183,1.439-1.778,2.011-1.023,4.604 3.78,2.973 10.47-.651 16.369,0 16.751,1.85 18.392,26.191-.512,26.6-1.016-.349-1.17-1.558-2.046-2.046-2.826.072-3.025,2.772-6.139,2.558-2.163-.352-1.809-4.101 0-4.604 1.586-.174 2.444,1.184 3.581,0 .856-.849.407-3.004.511-4.604-3.091.104-3.379-2.639-3.581-4.092 2.064-.956 7.136-3.999 8.185,0 .683,2.729-2.729,1.363-2.046,4.092-.091,1.797 1.728,1.683 2.046,3.069 19.679-2.894 2.797-25.487-10.742-14.835 .291,2.019-1.812,3.276-4.604,3.581-1.021-.514-.807-2.262-2.558-2.046-6.531,1.653-12.451,3.919-18.927,5.627 .48-2.526-.623-3.47-1.535-4.604-3.282.274-8.719,2.188-11.254,0 .494-1.22 2.71-2.256 1.535-3.581-2.937-1.332-8.595-2.65-7.162-6.65 2.772-.385 2.015,2.76 5.116,2.046 .949-1.099.346-3.749.512-5.628zm14.324-6.138c3.89.106 6.283,8.587 1.535,9.719-1.004-.871-2.557-1.194-3.069-2.558 .657-1.561 3.065-1.368 3.069-3.581-3.781-5.544-12.069-.799-12.789,3.581-1.971,11.995 20.779,13.553 29.669,7.673-9.769,3.041-30.041,3.865-28.646-7.161 .48-3.801 7.191-8.61 10.743-4.093-.174,1.799-3.892,1.874-2.558,3.581 5.689,10.448 11.182-9.204 2.046-7.161zm56.781,35.807c.78-2.118 3.904-1.894 3.581-5.115-2.126-2.232-6.311-.134-7.162,2.046 2.01-.224 3.567-3.571 5.627-2.046 .37,2.927-2.927,2.188-2.558,5.115 .26,2.127 2.193,2.582 3.581,3.581 2.739-.671 3.389-3.432 5.115-5.115 1.019-10.262-12.645-9.522-15.346-3.069 2.911-4.326 15.132-6.983 14.323,2.558-1.215,1.922-5.46,6.779-7.161,2.045zm-7.162,8.697c-1.362,1.365-4.756.7-5.627,2.558 2.841.113 4.471-.985 6.65-1.534 .537-4.288-2.872-4.632-3.069-8.186-.421-1.819 3.17-2.24 1.535-3.58-4.372,2.949.034,6.805.511,10.742zm61.897,1.023c-1.859.017-2.247,1.504-2.046,3.58 1.639,6.356 9.764,6.427 13.3,1.535 .506-2.041-1.528-1.541-1.023-3.581 1.833-.043 2.956-.796 4.604-1.023 1.013-7.591-6.807-8.873-13.812-9.207-2.619-.125-5.911-.737-8.185-.512-9.009.894-12.993,10.388-9.72,16.881-1.698-6.714 2.304-11.504 6.139-14.323 8.365-.261 22.33-3.272 24.554,5.115-1.479,1.419-4.147,1.65-5.627,3.069-.439,2.037 3.158,1.386 1.535,3.069-3.272,5.752-14.888,1.432-9.719-4.603zm-25.066,2.558c-12.56,1.003-32.192,1.496-34.785-10.743 1.32,13.601 22.38,14.546 34.785,10.743zm29.669,13.811c-7.652-.747-14.502-4.457-16.88-10.231-3.468-8.417 12.696-14.827 17.392-7.161-.932,1.688-3.496.609-3.58,2.046 1.006,1.015 2.922.326 4.092,0v-3.58c-6.888-6.215-20.644-2.023-19.438,7.673 1.157,9.305 16.017,13.544 26.089,13.3 7.887-.191 19.343-3.695 23.53,3.069-.514,1.021-2.262.808-2.046,2.558 .869,4.954-3.899,8.259-6.649,11.254 4.949-1.025 8.502-7.136 7.673-10.742 .729.122.862.842 1.534,1.023 3.16-14.024-20.647-8.129-31.717-9.209zm-60.873-12.789c-3.055.571-8.979,1.223-11.254-.511 1.148,4.391 7.345,1.565 11.254,1.534 6.849,8.687 33.694,5.929 35.296-4.093-5.079,7.956-27.813,11.313-35.296,3.07zm140.674,26.601c-.094,1.611-2.755.655-2.558,2.558 .4,2.327 4.428,1.029 5.115,3.069-.161,1.203-2.425.304-2.046,2.046-.135,1.67 1.985,1.085 2.046,2.558-2.879,3.751-4.193-2.94-5.115-2.558 1.577.98.4,4.716 1.535,6.139-.277-2.664 4.032-.741 4.604-2.558-.756-2.769-.984-3.022 0-5.627-.616-1.771-2.675-2.101-4.093-3.069 3.901-4.775-3.906-5.261-7.673-5.627 10.268-9.635-.691-27.955-14.835-22.508-2.575.992-4.585,4.137-6.138,7.161 1.791,3.771 2.382,13.843 7.673,10.743-4.225-.227-6.956-4.401-4.604-8.185-.122-1.413-1.901-1.168-2.558-2.047 2.979-2.629 4.323-6.431 8.185-7.161 14.143-2.678 18.755,14.729 10.231,23.53 2.491,1.433 8.542-.697 10.231,1.536zm34.785-8.696c-5.792,2.495-16.146,4.378-23.531,2.046-1.794.778-4.057,3.769-6.649,2.047-.557-2.944 2.35-2.425 1.534-5.627-.594-1.794-4.693-.081-5.115-2.047 .812-8.585 10.461-10.751 18.927-8.696-7.055-4.935-20.14-.216-19.95,8.696 .779,1.949 3.107,2.35 5.115,3.069-2.194,1.633-1.732,5.93.512,7.162 3.28-.131 4.114-2.707 6.65-3.581 5.377,4.111 16.884.506 22.508-1.535-4.68,7.359 2.9,9.979 4.093,15.858 2.67.556 5.963,3.382 9.719,3.581 5.166.273 11.033-4.027 11.254-7.162 .165-2.347-3.041-6.61-5.115-4.604 8.225,3.347-.576,11.341-7.673,10.23-2.324-2.222-4.742-2.31-7.674-3.069-.451-3.812-1.872-6.653-5.115-7.673 3.063-15.107 13.493-24.672 30.692-24.043-16.487-3.222-23.376,7.222-30.182,15.348zm34.785-.512c3.941-1.957 1.27-10.773-2.047-9.719 2.975,1.146 4.541,8.126.512,9.207-.021-2.656-2.957-3.545-5.115-2.558-3.055,6.971 6.172,10.267 10.742,6.65-1.028-3.415 2.197-2.577 2.558-4.604 .248-2.294-1.808-2.284-2.046-4.093 .968-.567 2.417-.652 3.581-1.023-.951-5.19-6.435-8.566-11.766-7.673 3.807,1.479 7.664,2.907 10.23,5.627-.094,1.611-2.755.655-2.558,2.558 4.098,5.426-5.429,11.719-10.23,6.65 .091-1.614.359-3.051 2.046-3.069 2.156-.181 2.356,3.411 4.093,2.047zm-84.916,5.627c9.594-1.723 6.003-21.85-4.093-18.415 9.101-1.403 11.384,14.206 4.093,18.415zm-7.162-15.346c.192-1.685 2.72-1.032 2.558-3.069-1.365.198-3.679,2.079-2.558,3.069zm76.732,24.554c-2.653-1.854 1.337-6.047-1.534-6.139-1.812,1.188.861,4.877-.512,5.627-26.158-1.436-2.991-29.812 12.276-25.577-16.649-9.579-40.084,29.606-10.23,26.089zm30.18-20.974c.733,3.156 9.217,7.386 12.789,6.65 5.755-1.185 3.76-10.99-1.023-6.139 .19.632 3.742-.774 4.093,1.023-3.151,12.508-24.294-7.807-9.72-5.627-.214,1.831-2.973,1.119-3.069,3.069 1.247,2.514 7.253,6.671 9.72,3.069-2.248.685-7.541-.251-8.696-3.581 1.614-.091 3.051-.359 3.069-2.046-4.285-6.709-8.104-.474-7.163,3.582zm-72.127-.511c.506-1.37 3.116-.636 3.069-2.559-4.068-4.14-8.846.766-8.696,3.581 .345,6.509 17.324,8.533 22.508,4.604-6.136,1.875-21.606.733-21.484-5.116 .051-2.467 2.686-4.458 6.138-3.069-.001,1.071-2.787,1.924-1.535,2.559zm-.511,1.023c2.931,3.665 9.376-.749 9.72-4.604-.113-.398-.429-.595-1.023-.512-.29,4.046-4.638,6.522-8.697,5.116zm-112.028-1.023c-2.987-1.064-7.744-.521-7.162,3.58 1.731,3.438 7.045,2.487 10.743,1.535-.905-3.799-8.776,2.607-9.719-2.558 1.291-3.443 8.253,1.195 8.696-3.581-.287-.736-.798-1.248-1.535-1.535 .075,1.27.095,2.483-1.023,2.559zm67.524,7.673c-2.886-.542-4.003,2.13-5.627,0-.518-2.393 2.052-1.7 1.534-4.093-1.114-1.613-4.591-.865-7.161-1.022-5.72,12.502 11.784,16.52 24.554,13.812-8.904-.434-29.935-.393-23.531-12.789 1.048-.791 4.58-.791 5.627,0-1.69.748-1.969,3.697-1.022,5.627 2.136.855 4.994-.382 6.649-1.534 1.973-9.479-13.951-11.587-16.369-4.604 3.011-4.942 17.314-4.507 15.346,4.603zm9.718-4.093c1.774.41 1.967-.762 3.581-.512 1.3.406.276,3.135 2.046,3.069 .713-3.74-4.064-5.44-5.627-2.557zm102.309,3.07c-1.61,1.942-3.04,6.087-1.022,8.696 4.42.839 5.517-1.645 6.138-4.604 4.106-.014 6.81,1.375 7.674,4.604-.826,2.244-4.859,1.28-6.139,3.069-.073,2.802 1.871,3.586 3.581,4.604 15.133-3.328 2.272-22.797-10.232-16.369zm-119.189,14.323c-1.508,1.571-1.03,4.012.512,5.115 3.257-.266 4.279-3.749 8.185-4.604 6.227-1.362 14.378,1.191 18.416-3.069-5.809,1.251-12.525.348-17.904,1.534-4.396.971-6.42,4.776-9.719,4.604-.301-2.177 2.762-.989 2.046-3.581-1.884-2.55-7.082-1.784-8.696-4.604-.31-1.81 2.429-3.184 0-4.093-3.205,5.475 3.103,7.395 7.16,8.698zm27.624-1.023c3.25.169 7.458,2.079 9.207,2.047-1.677-1.626-6.783-4.491-9.207-2.047z" fill="#a99a6f" fill-rule="evenodd"/>
 <path d="m53.991 101.94c1.013-1.63 1.99 1.031 1.535 2.558 3.215-1.77 10.26-1.142 8.696 3.069-3.648-1.864-5.261 1.6-9.208 1.023 2.346-1.234 5.275-1.887 8.185-2.558-1.884-4.261-8.576 1.928-9.208-4.092z" fill-rule="evenodd"/>
 <path d="m55.525,110.121c3.424-.8 7.571.698 7.673,3.581 .249,7.009-13.99,4.466-7.673-3.581zm5.116,1.023c-3.135-1.484-5.926.569-5.627,4.092 2.31,4.462 9.548.261 5.627-4.092z" fill-rule="evenodd"/>
 <path d="m63.199,118.306c.297,1.337-3.209,3.258-2.046,7.162h2.046c-.697-1.519-.74-3.707.512-4.604-.027,1.415-.584,3.376 1.023,5.115-5.327,3.804-5.908-6.741-1.535-7.673z" fill-rule="evenodd"/>
 <path d="m71.383,119.84c2.212-1.18 6.843,6.12 1.535,6.65 2.728-1.812.661-5.526-1.535-6.65z" fill-rule="evenodd"/>
 <path d="m65.245,128.537c1.569-1.826 3.134,2.254 5.115,2.558 5.457.835 12.984-8.407 18.416-2.046-5.046-5.13-12.592,4.14-18.416,3.069-2.754-.507-1.769-3.022-5.115-3.581z" fill-rule="evenodd"/>
 <path d="m414.12 243.12c-45.235 12.876-103.66 4.351-146.81-3.069 31.082 7.218 76.798 14.094 118.68 9.719 19.118-1.997 36.949-4.655 46.551-15.346-5.159 9.794-22.63 16.652-36.319 19.438-34.479 7.018-76.341 3.444-109.98-2.558-66.988-11.951-124.63-34.396-174.95-62.408-25.3-14.085-48.343-32.379-63.943-54.735 28.273 33.801 67.405 56.655 109.98 75.709 42.697 19.106 91.256 33.473 144.26 41.435-12.889-4.037-26.171-5.214-38.877-8.185-87.011-20.345-165.01-53.653-215.87-111.52-1.796-0.448-0.532 1.327 0 1.535-0.721 1.016-1.731-1.986-2.558-2.558 5.403-4.7 8.44 4.102 10.743 6.65 22.868 25.316 54.271 43.767 86.451 60.362 37.2 19.185 79.234 33.577 125.33 42.458-34.448-9.374-70.111-17.533-99.751-31.716 63.809 22.241 156.09 51.54 247.07 34.786z" fill="#a99a6f" fill-rule="evenodd"/>
 <path d="m64.733,129.56c-.513,5.288 3.253,6.296 6.65,7.673 1.99-1.194 3.17-1.856 6.139-1.022 1.905-2.018 2.618-5.226 6.65-5.116 .455.91 1.428,1.3 1.023,3.069 1.498-.459 1.572-.459 3.069,0 .244,2.265-.704,2.544 0,4.093 4.396.715 3.112-5.172 2.046-7.162 2.586,1.148 3.317,8.48-1.023,8.185-.867-1.009-2.578-1.174-2.046-3.581-1.346-.871-3.754-.68-3.069-3.581-3.597-.187-4,2.821-5.115,5.115-5.89,2.552-17.047-.841-14.324-7.673z" fill-rule="evenodd"/>
 <path d="m108.214,142.859c-1.179.526-1.649,1.761-3.581,1.535-1.759-.117-2.229-1.522-2.558-3.069-1.164.711-1.981,1.77-3.069,2.558-.723-1.258 2.221-3.219 3.581-4.093 .852.683.171,2.898 1.023,3.581 3.799.99 4.158-2.746 3.069-5.115-6.402-3.569-10.489,2.375-10.742,8.185-1.92.385-1.115-1.954-2.558-2.046-1.95.096-3.366.727-3.581,2.558 .371,1.846 3.897.536 5.116,1.534 .797,7.484 11.708,6.371 18.416,5.115-1.324-4.055-7.362-.236-8.185-4.604-3.152,1.367-6.544-.316-6.138-4.092 1.013,2.201 2.466,4.418 5.627,3.068 3.828,2.139 7.158,3.046 11.765,5.116-6.649,3.385-20.201,4.983-22.508-3.581-1.289-.236-3.406-.032-4.604-1.535 .423-1.445-.721-1.325-.511-2.558 .666-1.039 2.188-1.222 3.069-2.046 2.226-.521 2.352,1.059 3.581,1.535-1.745-7.837 13.767-12.778 12.788-2.046z" fill-rule="evenodd"/>
 <path d="m113.33,164.855c-3.101.714-2.344-2.431-5.116-2.046-1.434,4 4.225,5.318 7.162,6.65 1.175,1.325-1.041,2.361-1.535,3.581 2.535,2.188 7.972.274 11.254,0 .912,1.134 2.015,2.077 1.535,4.604 6.477-1.708 12.396-3.974 18.927-5.627 1.75-.216 1.537,1.532 2.558,2.046 2.792-.305 4.895-1.562 4.604-3.581 13.539-10.652 30.421,11.941 10.742,14.835-.318-1.387-2.137-1.272-2.046-3.069-.683-2.729 2.729-1.363 2.046-4.092-1.049-3.999-6.12-.956-8.185,0 .201,1.453.489,4.196 3.581,4.092-.104,1.601.345,3.756-.511,4.604-1.137,1.184-1.995-.174-3.581,0-1.809.503-2.163,4.252 0,4.604 3.114.215 3.312-2.485 6.139-2.558 .875.488 1.03,1.697 2.046,2.046 18.903-.408 17.263-24.75.512-26.6-5.899-.651-12.589,2.973-16.369,0-.755-2.594 2.206-3.165 1.023-4.604-4.217-2.735-7.169,4.76-3.069,6.139-2.592.818-4.48-6.1-1.535-8.185 1.92.809 5.101.356 6.139,2.046 .67,2.547-1.575,2.177-1.535,4.093 4.406,2.166 9.222-.997 14.323-.512 8.948.852 17.229,6.764 15.858,18.416-2.749,5.357-10.5,13.987-17.904,8.185-1.804.412-1.738,2.694-4.092,2.558-3.08-.519-4.351-2.525-3.581-5.627 1.842-.375 2.583-1.85 5.115-1.535 .428-3.667-3.236-3.243-3.581-6.139 1.065-3.713 9.045-5.077 10.742-1.022 .093,2.651-2.391,2.725-2.558,5.115 10.37,4.296 11.589-12.801 1.535-14.323-7.117-1.077-10.768,4.387-15.346,6.65-1.607-.099-2.46-.951-2.558-2.558-6.646.705-20.403,11.27-20.973,1.022-3.641.595-8.435,2.925-11.254,0-1.19-2.007.626-1.901.512-4.092-3.896-1.221-7.485-2.746-7.673-7.674 2.687-1.615 3.772.835 5.627,1.535 .698-4.341 2.318-9.206 6.65-11.254 1.01.959-4.812,3.626-5.116,6.649-.167,1.881.436,4.531-.512,5.628z" fill-rule="evenodd"/>
 <path d="m126.118,160.252c-1.334-1.707 2.384-1.782 2.558-3.581-3.551-4.518-10.262.292-10.743,4.093-1.394,11.026 18.878,10.202 28.646,7.161-8.89,5.88-31.64,4.322-29.669-7.673 .72-4.38 9.007-9.125 12.789-3.581-.004,2.213-2.413,2.021-3.069,3.581 .513,1.363 2.065,1.687 3.069,2.558 4.748-1.132 2.355-9.612-1.535-9.719 9.137-2.043 3.644,17.609-2.046,7.161z" fill-rule="evenodd"/>
 <path d="m192.107,186.853c.809-9.541-11.412-6.884-14.323-2.558 2.702-6.453 16.365-7.192 15.346,3.069-1.727,1.684-2.376,4.444-5.115,5.115-1.388-.999-3.321-1.454-3.581-3.581-.369-2.927 2.927-2.188 2.558-5.115-2.06-1.525-3.617,1.822-5.627,2.046 .851-2.18 5.036-4.278 7.162-2.046 .323,3.222-2.8,2.997-3.581,5.115 1.701,4.734 5.946-.123 7.161-2.045z" fill-rule="evenodd"/>
 <path d="m177.272,186.853c1.636,1.34-1.956,1.761-1.535,3.58 .198,3.554 3.606,3.897 3.069,8.186-2.179.549-3.809,1.647-6.65,1.534 .871-1.857 4.265-1.192 5.627-2.558-.476-3.937-4.882-7.793-.511-10.742z" fill-rule="evenodd"/>
 <path d="m249.4,203.222c1.623-1.684-1.975-1.032-1.535-3.069 1.479-1.419 4.147-1.65 5.627-3.069-2.224-8.388-16.188-5.376-24.554-5.115-3.835,2.819-7.837,7.609-6.139,14.323-3.273-6.493.711-15.987 9.72-16.881 2.273-.226 5.565.387 8.185.512 7.005.334 14.824,1.616 13.812,9.207-1.648.228-2.771.98-4.604,1.023-.505,2.04 1.529,1.54 1.023,3.581-3.536,4.892-11.661,4.821-13.3-1.535-.201-2.076.187-3.563 2.046-3.58-5.169,6.034 6.447,10.354 9.719,4.603z" fill-rule="evenodd"/>
 <path d="m276,224.195c-.672-.182-.805-.901-1.534-1.023 .829,3.606-2.724,9.717-7.673,10.742 2.75-2.995 7.519-6.3 6.649-11.254-.216-1.75 1.532-1.537 2.046-2.558-4.188-6.765-15.644-3.261-23.53-3.069-10.072.244-24.932-3.995-26.089-13.3-1.206-9.696 12.551-13.888 19.438-7.673v3.58c-1.17.326-3.086,1.015-4.092,0 .084-1.437 2.648-.357 3.58-2.046-4.696-7.666-20.86-1.256-17.392,7.161 2.378,5.774 9.228,9.484 16.88,10.231 11.071,1.081 34.878-4.814 31.717,9.209z" fill-rule="evenodd"/>
 <path d="m313.854,227.264c8.523-8.802 3.911-26.208-10.231-23.53-3.861.73-5.205,4.532-8.185,7.161 .656.879 2.436.634 2.558,2.047-2.352,3.783.38,7.958 4.604,8.185-5.291,3.1-5.882-6.972-7.673-10.743 1.553-3.024 3.562-6.169 6.138-7.161 14.144-5.447 25.103,12.873 14.835,22.508 3.767.366 11.574.852 7.673,5.627 1.418.969 3.477,1.299 4.093,3.069-.984,2.604-.756,2.858 0,5.627-.571,1.816-4.881-.106-4.604,2.558-1.135-1.423.042-5.158-1.535-6.139 .922-.383 2.236,6.309 5.115,2.558-.061-1.473-2.181-.888-2.046-2.558-.379-1.742 1.885-.843 2.046-2.046-.688-2.04-4.715-.742-5.115-3.069-.197-1.902 2.464-.946 2.558-2.558-1.689-2.234-7.74-.104-10.231-1.536z" fill-rule="evenodd"/>
 <path d="m389.562,217.545c-1.687.019-1.955,1.455-2.046,3.069 4.802,5.068 14.328-1.225 10.23-6.65-.197-1.902 2.464-.946 2.558-2.558-2.566-2.72-6.424-4.147-10.23-5.627 5.331-.894 10.814,2.482 11.766,7.673-1.164.371-2.613.456-3.581,1.023 .238,1.809 2.294,1.799 2.046,4.093-.36,2.026-3.586,1.188-2.558,4.604-4.57,3.616-13.797.32-10.742-6.65 2.158-.987 5.094-.099 5.115,2.558 4.029-1.081 2.463-8.062-.512-9.207 3.316-1.055 5.988,7.762 2.047,9.719-1.737,1.363-1.937-2.229-4.093-2.047z" fill-rule="evenodd"/>
 <path d="m304.65 206.8c10.096-3.435 13.687 16.692 4.093 18.415 7.291-4.209 5.008-19.818-4.093-18.415z" fill-rule="evenodd"/>
 <path d="m337.896,210.383c-3.452-1.389-6.087.603-6.138,3.069-.122,5.85 15.349,6.991 21.484,5.116-5.184,3.929-22.163,1.904-22.508-4.604-.149-2.815 4.628-7.721 8.696-3.581 .047,1.923-2.563,1.188-3.069,2.559-1.251-.636 1.535-1.489 1.535-2.559z" fill-rule="evenodd"/>
 <path d="m276,216.01c2.418-6.982 18.342-4.875 16.369,4.604-1.655,1.152-4.514,2.39-6.649,1.534-.946-1.93-.668-4.879 1.022-5.627-1.047-.791-4.579-.791-5.627,0-6.403,12.396 14.627,12.355 23.531,12.789-12.77,2.708-30.273-1.31-24.554-13.812 2.57.157 6.047-.591 7.161,1.022 .518,2.393-2.052,1.7-1.534,4.093 1.624,2.13 2.741-.542 5.627,0 1.969-9.109-12.334-9.544-15.346-4.603z" fill-rule="evenodd"/>
 <path d="m277.023,225.218c2.429.909-.31,2.283 0,4.093 1.614,2.819 6.812,2.054 8.696,4.604 .716,2.592-2.347,1.404-2.046,3.581 3.299.172 5.323-3.634 9.719-4.604 5.379-1.187 12.096-.283 17.904-1.534-4.038,4.261-12.189,1.707-18.416,3.069-3.905.854-4.928,4.338-8.185,4.604-1.542-1.104-2.02-3.544-.512-5.115-4.055-1.305-10.363-3.225-7.16-8.698z" fill-rule="evenodd"/>
</svg>
