<?xml version="1.0" encoding="utf-8"?>
<svg xmlns="http://www.w3.org/2000/svg" xmlns:xlink="http://www.w3.org/1999/xlink" version= "1.1" width="1618px" height="1000px" viewBox="-449 213 1618 1000">
<g id="layer1">
<g style="fill:rgb(99,195,207); fill-opacity:1.0; stroke-linejoin: miter">
<path d="M-449.001,211.87538C-449.299,211.87538,-449.5848,211.99376,-449.79553,212.20448C-450.00626,212.4152,-450.1246,212.70099,-450.1246,212.999L-450.1236,1213.0C-450.1236,1213.6206,-449.62054,1214.1237,-449.0,1214.1237L1169.001,1214.1246C1169.299,1214.1246,1169.5848,1214.0062,1169.7955,1213.7955C1170.0062,1213.5848,1170.1246,1213.299,1170.1246,1213.001L1170.1237,213.0C1170.1237,212.37944,1169.6206,211.87639,1169.0,211.87639L-449.001,211.87538 Z"/>
</g>
<g style="fill:rgb(253,186,155); fill-opacity:0.99607843; stroke-linejoin: miter">
<path d="M646.8458,600.6587L646.8458,600.6592L632.49915,591.66223Q640.0591,587.9217,647.6189,584.1811L646.8458,600.6587"/>
</g>
<g style="fill:rgb(253,186,155); fill-opacity:0.99607843; stroke-linejoin: miter">
<path d="M623.5021,572.10754L623.5021,572.1081L628.8956,580.4652Q626.31836,581.3491,623.7411,582.23315Q622.42505,578.74603,621.10913,575.2589L623.5021,572.10754"/>
</g>
<g style="fill:rgb(255,177,146); fill-opacity:1.0; stroke-linejoin: miter">
<path d="M546.0587,556.842L544.8727,557.96906Q538.3054,564.1102,534.79315,568.8489Q533.1468,570.6987,526.7089,582.22266Q524.8797,585.1608,522.4976,587.4221Q522.0063,588.1309,518.4522,590.2055Q517.28815,591.03204,508.91104,593.8728Q506.69144,594.91656,506.78445,595.1921Q506.35056,595.3871,506.72623,596.84625Q510.52676,601.8153,510.1658,602.8774Q510.34988,603.22894,509.28006,604.777Q508.80917,605.4411,505.43173,608.20355Q504.1736,609.5443,504.2712,609.7998Q503.769,611.4176,507.67392,614.6815Q507.84055,614.8217,507.08725,615.07007Q503.7596,615.5201,503.45438,615.8252Q502.37088,616.48773,502.38602,616.79944Q502.19284,616.93866,502.106,618.4136Q502.64645,624.3259,502.3887,624.60004Q502.5073,625.06934,500.9467,630.4317Q500.7534,631.23535,500.67923,632.008Q500.01828,640.332,523.10626,643.801Q518.28033,656.29,514.0666,662.7779Q510.92972,667.2498,510.1108,667.8998Q507.70895,670.4265,502.96335,674.3624Q501.76468,675.42523,501.06863,676.34406Q500.3729,677.2624,500.40738,678.0658L500.6816,678.8466Q501.9951,681.6025,520.82697,683.75714Q539.19916,685.3865,539.663,683.0801Q540.04584,682.4733,539.9051,681.5286Q538.2718,675.4705,538.56,672.1092L538.8232,669.7106Q539.25775,667.1647,540.2863,664.16547Q542.4284,658.07947,545.9079,651.2339Q547.196,648.47797,557.204,630.01324Q559.59644,625.3427,561.0049,622.03516Q569.26294,599.7598,573.99756,587.8432L546.0587,556.842 Z"/>
</g>
<g style="fill:rgb(0,0,0); fill-opacity:1.0; stroke-linejoin: miter">
<path d="M528.1815,564.51654L553.2549,584.9164Q543.3807,612.0486,540.59467,622.36694Q536.16205,639.3735,536.2874,641.8579Q533.6452,660.0902,542.5611,666.8512Q546.4023,669.81445,551.8114,670.9654Q554.5326,671.54425,557.38855,671.6579Q558.8435,671.97186,565.8872,671.0638Q575.40063,668.79144,577.9341,666.4608Q579.5425,665.53015,581.74756,662.87604L583.2306,660.4049L584.22424,657.6998Q584.973,654.8781,585.0781,651.6439L584.51685,633.3863Q584.4802,629.3657,584.97314,625.12866Q585.52234,620.88794,586.60266,616.5101L591.3905,598.9733Q592.5381,594.63416,593.22107,590.47125Q593.9038,586.3087,593.79016,582.42566L593.3944,578.6386Q592.26917,570.0975,581.90265,562.07214Q571.4941,554.85925,560.3493,552.5064Q549.2009,550.1218,542.312,552.9206Q537.12805,554.0497,528.1815,564.51654 Z"/>
</g>
<g style="fill:rgb(0,0,0); fill-opacity:0.99607843; stroke-linejoin: miter">
<path d="M527.6535,583.8334L527.65314,583.8341Q531.00446,584.1945,532.56256,584.4705Q533.19305,584.57935,533.7525,584.7053L534.28986,584.83673L534.7829,584.9797Q535.27936,585.1395,535.5667,585.2778L535.93256,585.4707L536.23846,585.67816L536.4897,585.8993Q536.7137,586.12726,536.8504,586.3765Q537.2138,586.99506,537.1961,588.27423L527.6535,583.8334 Z"/>
</g>
<g style="fill:rgb(255,255,255); fill-opacity:0.99607843; stroke-linejoin: miter">
<path d="M527.30255,587.1945L527.3023,587.195L525.1031,591.47595Q528.9687,592.4813,532.83417,593.48724L527.30255,587.1945 Z"/>
</g>
<g style="fill:rgb(255,0,0); fill-opacity:0.99607843; stroke-linejoin: miter">
<path d="M505.1849,608.4702Q504.1837,609.57086,504.2712,609.7998Q503.769,611.4176,507.67392,614.6815Q507.84055,614.8217,507.08725,615.07007Q503.7596,615.5201,503.45438,615.8252Q502.37088,616.48773,502.38602,616.79944Q502.19284,616.93866,502.106,618.4136Q502.17984,619.2197,502.2385,619.92114Q506.88998,617.97314,511.54092,616.0257Q508.36557,612.2489,505.18985,608.4718 Z"/>
</g>
<g style="fill:rgb(255,169,106); fill-opacity:0.99607843; stroke-linejoin: miter">
<path d="M548.69604,663.6772L548.69604,663.6775L548.6957,663.67847L548.69604,663.6772 Z"/>
</g>
<g style="fill:rgb(0,0,0); fill-opacity:0.99607843; stroke-linejoin: miter">
<path d="M527.48956,587.1921L527.4892,587.19305Q526.79987,587.72235,526.2187,588.25977Q525.77106,588.7108,525.71844,588.8034Q525.57513,588.9866,525.47186,589.17206Q525.2685,589.5442,525.2404,589.9282Q525.22455,590.12024,525.2408,590.3149Q525.23456,590.4109,525.3409,590.90137Q525.44305,591.2951,525.57745,591.69086L528.403,590.94495L527.48956,587.1921 Z"/>
</g>
<g>
<g style="fill:rgb(255,177,146); fill-opacity:1.0; stroke-linejoin: miter">
<path d="M260.70636,825.53076L294.33716,781.134L323.5404,804.67Q233.41786,880.81396,232.57066,882.5443Q227.17299,887.32306,225.56682,890.8615Q224.8697,892.31744,224.62148,894.0163Q224.39156,899.98224,224.03511,900.88385Q223.7066,902.31464,222.78085,903.5058Q221.71432,905.4311,214.63873,907.8366L212.57242,908.5037L199.94441,897.93085Q187.31572,887.358,180.56136,880.8591Q176.24777,876.66254,176.68645,875.74457Q176.95631,875.31805,178.34756,875.451Q184.64442,876.46747,190.70772,876.57733Q194.0998,876.5922,197.97098,875.9537Q205.77966,874.76044,214.50256,869.2367Q223.20042,863.6229,232.44096,854.88184Q246.34445,841.52637,260.70636,825.53076 Z"/>
</g>
<g style="fill:rgb(0,0,0); fill-opacity:0.99607843; stroke-linejoin: miter">
<path d="M205.12918,873.26874L204.78418,873.41583Q193.64151,876.13983,177.42773,872.85443Q171.56967,871.5572,164.95421,868.68726Q161.86621,867.30347,158.7328,865.64014L144.17558,857.77124Q141.62547,856.5062,139.58664,855.8413Q137.54851,855.1753,136.1809,855.3601L135.02101,855.8203Q134.22122,856.2362,133.97783,858.2722Q133.79517,862.4265,136.91914,869.72424Q141.30287,878.8101,142.8743,880.69135Q145.28822,884.3708,148.1233,887.63727L151.03047,890.70026Q154.02563,893.59796,157.24051,895.53394Q163.73183,899.2795,170.35799,900.1982Q173.64021,900.70856,176.77095,900.81757L190.3955,900.6352Q191.78075,900.5274,195.92183,901.1054Q201.20152,902.1224,204.27701,905.8129L194.19054,922.6213L200.93843,927.0241L208.18338,916.2652Q214.38565,914.535,218.15555,909.97406Q221.94046,905.56525,227.93785,895.6406L205.12918,873.26874 Z"/>
</g>
</g>
<g>
<g style="fill:rgb(255,177,146); fill-opacity:1.0; stroke-linejoin: miter">
<path d="M251.38776,816.6835L289.42963,776.00275L316.04218,802.4328Q218.52794,868.8478,217.50644,870.48114Q211.64346,874.67584,209.67993,878.02936Q208.83603,879.40546,208.41342,881.06976Q207.56775,886.9798,207.12,887.8399Q206.6452,889.22894,205.60123,890.31805Q204.34128,892.1225,197.0549,893.7834L194.93062,894.2333L183.46388,882.41144Q171.99637,870.5887,165.9504,863.426Q162.09392,858.806,162.62524,857.9385Q162.93774,857.54224,164.30783,857.81824Q170.46565,859.48047,176.48514,860.2167Q179.85747,860.5824,183.77394,860.3479Q191.6642,859.9684,200.9115,855.37634Q210.14328,850.69226,220.2383,842.95386Q235.44856,831.10767,251.38776,816.6835 Z"/>
</g>
<g style="fill:rgb(0,0,0); fill-opacity:0.99607843; stroke-linejoin: miter">
<path d="M191.1715,858.4176L190.81313,858.5283Q179.44841,860.08496,163.66142,855.1404Q157.96896,853.2445,151.68575,849.70593Q148.7574,848.01013,145.81288,846.0316L132.14755,836.6987Q129.74194,835.1771,127.782776,834.30505Q125.82445,833.4319,124.44507,833.47437L123.24379,833.812Q122.40527,834.1428,121.95261,836.14294Q121.34135,840.256,123.69377,847.8379Q127.11432,857.328,128.48277,859.36194Q130.50317,863.2711,132.98521,866.8131L135.56004,870.1604Q138.23944,873.3525,141.23692,875.61066Q147.30598,880.0076,153.80164,881.6065Q157.01347,882.45355,160.11618,882.8857L173.68642,884.1131Q175.07538,884.1495,179.13452,885.15265Q184.28075,886.7105,186.95808,890.69904L175.18724,906.3737L181.4436,911.451L189.76244,901.4991Q196.11034,900.4194,200.33174,896.2729Q204.5523,892.27936,211.54398,883.02826L191.1715,858.4176 Z"/>
</g>
</g>
<g style="fill:rgb(58,105,116); fill-opacity:1.0; stroke-linejoin: miter">
<path d="M474.09552,817.35297L471.7124,820.2128L450.308,846.06995Q443.73282,853.2888,440.1694,856.15955Q427.24008,866.81714,415.87408,869.5807Q406.51117,872.2529,395.9172,870.68066Q394.20047,870.61523,385.19025,868.1929Q361.5966,860.5138,360.0668,860.4905Q358.24728,859.82446,349.94693,858.90466Q339.94992,857.6909,319.11765,862.4325L316.76492,795.56537Q333.4808,790.13153,343.16354,790.08673Q352.6098,789.56525,374.1524,793.8663L407.33774,767.3175L474.09552,817.35297 Z"/>
</g>
<g style="fill:rgb(255,0,0); fill-opacity:1.0; stroke-linejoin: miter">
<path d="M540.4165,738.3638L541.3137,733.88715Q550.0952,693.8279,546.24774,681.53815Q545.4368,677.109,539.6397,669.6641L540.08856,666.3797L516.1938,655.1341L512.16925,662.304Q502.89603,669.5426,498.90176,671.2802Q495.16812,673.2125,490.601,674.52167L468.547,679.24066Q461.2663,681.9965,459.99365,684.5204Q457.69714,687.4501,456.67596,691.30725Q455.90118,701.7381,451.0705,720.4411Q448.98584,727.8966,444.86557,736.79047Q436.9063,754.09094,421.299,761.79486Q408.36975,768.3088,384.6458,769.5234Q364.06406,770.941,318.18564,767.4676Q308.56033,767.64264,302.2837,769.51227Q290.39493,770.28986,188.42433,821.49316Q203.11633,832.00037,204.28055,836.60547Q205.39398,840.4396,204.85876,841.2234Q199.79599,854.0293,200.99164,854.4695Q201.03784,858.0895,205.12543,862.2252Q215.13501,871.61053,249.93607,887.59863Q262.7591,866.77954,274.27045,858.095Q284.87177,849.10254,316.27383,834.567Q445.07352,837.37177,478.3128,823.211Q484.6504,820.4195,488.78784,816.9394Q491.9016,815.5264,497.34958,805.2935Q501.45578,792.2532,499.62125,777.35315L497.67538,823.7142L540.4165,738.3638"/>
</g>
<g style="fill:rgb(136,210,255); fill-opacity:1.0; stroke-linejoin: miter">
<path d="M42.85367,609.12494L43.58159,633.3473Q43.353127,706.6824,25.254848,751.63275Q7.0128827,796.5552,-21.403164,789.80585Q-48.723396,779.69464,-67.792175,724.4324Q-73.910614,706.5666,-78.39914,685.3494L-82.39105,663.50256Q-85.93087,640.92163,-87.3058,616.23865Q-90.748,540.4474,-75.133545,489.14154Q-59.51909,437.83588,-31.968857,434.41266Q-4.209525,434.81284,16.903034,484.1114Q38.01574,533.41003,42.85367,609.12494 Z"/>
</g>
<g style="fill:rgb(255,255,255); fill-opacity:0.25490198; stroke-linejoin: miter">
<path d="M46.588554,643.07684L-61.985428,739.5315L-25.987719,785.72516L4.2039776,778.1719L25.68655,747.9569L39.621315,697.1148L46.588554,643.07684 Z"/>
</g>
<g style="fill:rgb(255,255,255); fill-opacity:0.25882354; stroke-linejoin: miter">
<path d="M-89.85468,581.48486L21.622423,481.25323L5.3830323,450.65582L-25.939068,433.13965L-58.574917,450.45465L-82.902,497.36115L-92.188995,546.9925L-89.85468,581.48486 Z"/>
</g>
<g style="fill:rgb(254,186,155); fill-opacity:0.99607843; stroke-linejoin: miter">
<path d="M647.6476,580.0164L642.5238,580.7344Q642.67664,576.5966,641.53577,575.1209Q641.1078,574.5117,640.39355,574.09454L639.5896,573.7373L638.60657,573.5008L637.42664,573.3964Q632.6105,573.46106,627.4551,575.572Q625.81055,576.254,624.4363,577.10004L623.1769,577.9791L622.14685,578.9242L621.39355,579.9281L620.9641,580.98254L620.89307,582.10046L621.1638,583.2473Q622.13635,585.6012,624.78784,587.7955Q626.0697,588.8768,627.50684,589.82135Q628.2605,590.42737,631.72754,592.1875Q635.0187,593.7354,637.1278,593.5477Q639.20056,593.2955,640.60535,591.27454L646.77405,590.02454L647.6476,580.0164 Z"/>
</g>
<g style="fill:rgb(254,186,155); fill-opacity:0.99607843; stroke-linejoin: miter">
<path d="M631.2599,576.0281L631.2599,576.02893Q629.95776,572.1017,629.937,570.3196Q629.93115,569.81036,630.0309,569.39496Q630.17847,568.90936,630.26196,568.817L630.37964,568.6434Q630.5062,568.47845,630.66406,568.3472Q630.9823,568.08527,631.3937,567.95605Q633.3087,567.5073,634.8275,568.85205Q635.1704,569.17017,635.4657,569.56976Q635.63586,569.73083,636.2671,570.9101Q636.97205,572.41534,637.5477,574.1396L631.2599,576.0281 Z"/>
</g>
<g style="fill:rgb(255,255,255); fill-opacity:1.0; stroke-linejoin: miter">
<path d="M809.5659,643.8221L780.2169,627.41003L638.0415,619.43384L643.13745,579.94476C722.1951,576.1032,771.82104,574.84686,792.0259,576.0045C809.2494,576.9914,818.46094,578.0237,819.95166,578.32416C829.54376,580.256,836.4827,582.23035,840.8265,584.8377C846.56805,588.2834,850.17926,593.7611,851.43243,601.65857L809.5659,643.8221 Z"/>
</g>
<g style="fill:rgb(0,0,0); fill-opacity:1.0; stroke-linejoin: miter">
<path d="M600.5552,539.6842L600.5552,539.6848L627.1421,567.7012L629.15753,563.2209L600.5552,539.6842 Z"/>
</g>
<g style="fill:rgb(0,0,0); fill-opacity:1.0; stroke-linejoin: miter">
<path d="M633.8315,530.1917L633.8315,530.1923L626.0272,568.0189Q623.98926,566.6479,621.95154,565.2765L633.8315,530.1917 Z"/>
</g>
<g style="fill:rgb(0,0,0); fill-opacity:1.0; stroke-linejoin: miter">
<path d="M638.3081,566.1354L638.3081,566.1363C639.21045,569.2994,637.3773,572.596,634.21326,573.4988L634.21326,573.4993C631.04956,574.4012,627.7527,572.56793,626.8501,569.4037L626.8501,569.4049C625.9475,566.24005,627.78107,562.9432,630.945,562.0407L630.9449,562.04156C634.1092,561.13824,637.4057,562.9718,638.3081,566.1354L638.3081,566.1363 M636.2678,566.71747L636.2678,566.7177C635.6867,564.6805,633.56415,563.50006,631.52704,564.08124L631.52704,564.0821C629.4899,564.66235,628.3093,566.78467,628.8905,568.82196L628.8905,568.8231C629.4717,570.85895,631.59436,572.0394,633.6316,571.45825L633.6312,571.4591C635.66846,570.8771,636.8489,568.75476,636.2678,566.71747 Z"/>
</g>
<g style="fill:rgb(0,0,0); fill-opacity:1.0; stroke-linejoin: miter">
<path d="M626.5736,568.7971L626.5736,568.7977C627.4762,571.96075,625.64307,575.25775,622.47876,576.16016L622.47876,576.1611C619.3148,577.0626,616.0183,575.2294,615.1157,572.0654L615.1157,572.0666C614.21326,568.9015,616.04626,565.6048,619.2106,564.70245L619.2106,564.7033C622.3743,563.8,625.671,565.6329,626.5736,568.7971L626.5736,568.7977 M624.5332,569.37915L624.5332,569.38007C623.95215,567.34155,621.8297,566.1617,619.7925,566.74286L619.7925,566.74347C617.75525,567.3237,616.57495,569.4461,617.1561,571.4834L617.1561,571.4837C617.73706,573.5207,619.8596,574.70087,621.89685,574.1197L621.89685,574.12054C623.9341,573.5385,625.1144,571.41614,624.5332,569.37915 Z"/>
</g>
<g style="fill:rgb(254,186,155); fill-opacity:0.99607843; stroke-linejoin: miter">
<path d="M635.0718,567.8739L635.0851,568.59076Q635.15735,570.80896,634.9364,572.4233Q634.8519,572.93896,634.70215,573.32043L634.53186,573.65985L634.3209,573.91565L634.0652,574.07904L633.9795,574.1089Q633.8784,574.14246,633.69666,574.1463Q633.3939,574.14453,633.0259,574.0077L632.6443,573.8437Q632.2479,573.64905,631.8042,573.3564Q630.7063,572.64923,628.364,570.62274Q628.91064,569.21893,629.3611,568.6223Q629.8324,568.0514,629.97107,567.9929Q630.20276,567.81866,630.4813,567.7032Q631.218,567.4281,632.14966,567.4766Q633.25037,567.52075,635.0718,567.8739 Z"/>
</g>
<g style="fill:rgb(254,186,155); fill-opacity:0.99607843; stroke-linejoin: miter">
<path d="M621.1677,575.70764L621.1677,575.7085Q619.51624,574.4091,618.9684,573.5496Q618.7407,573.20905,618.59937,572.83606L618.4851,572.45337Q618.395,572.06134,618.4238,571.6249Q618.54443,570.3807,619.3551,569.2555Q619.6138,568.90326,619.9144,568.6331L620.22144,568.3922Q620.5365,568.1759,620.8678,568.09344L621.23975,568.0537Q621.64954,568.0616,622.0488,568.36035L622.4021,568.68225Q622.7512,569.06024,623.08704,569.6215L623.4199,570.21844Q623.75037,570.856,624.07166,571.61584Q624.5563,572.715,625.6481,575.82196L621.1677,575.70764 Z"/>
</g>
<g style="fill:rgb(254,186,155); fill-opacity:1.0; stroke-linejoin: miter">
<path d="M814.6739,1107.7172L814.6739,1107.718Q800.61725,1115.4836,795.0463,1117.051Q790.38947,1118.4066,789.5317,1118.4165Q787.7909,1118.8047,779.1915,1119.3544Q776.9391,1119.8119,776.96826,1120.1091L776.65076,1120.5602Q776.45544,1121.0833,776.71545,1121.8292Q777.2622,1123.3682,779.312,1125.2467Q782.4529,1128.1797,787.77576,1129.8038Q791.63385,1130.8683,797.15216,1130.6439Q802.8073,1130.4092,812.4859,1128.6575Q827.02985,1129.2504,832.3668,1129.0156Q841.13074,1128.5531,842.25604,1128.1174Q848.13025,1127.1273,850.86646,1124.4243L851.95386,1122.9203Q852.80566,1121.287,852.87317,1119.226Q853.1095,1112.0123,844.0684,1095.5406L814.6739,1107.7172 Z"/>
</g>
<g style="fill:rgb(254,186,155); fill-opacity:1.0; stroke-linejoin: miter">
<path d="M807.4628,1097.5605L805.4588,1098.6533Q794.40753,1104.7811,787.8353,1106.895Q785.9542,1107.5104,784.1283,1107.9138Q783.77686,1108.0079,782.0867,1108.2982Q780.3169,1108.6732,772.6317,1109.12Q770.73047,1109.3524,770.329,1109.6014Q767.7936,1111.0005,772.10034,1115.0906Q774.89453,1117.346,775.78687,1117.6962Q777.2223,1118.4987,778.87305,1119.1079Q781.682,1120.2363,786.4426,1120.4939Q793.1036,1120.7668,805.2745,1118.5011L827.24005,1117.9115L807.4628,1097.5605 Z"/>
</g>
<g style="fill:rgb(254,186,155); fill-opacity:1.0; stroke-linejoin: miter">
<path d="M779.027,1063.6885L779.027,1063.6893L779.027,1063.6885L779.027,1063.6893 Z"/>
</g>
<g style="fill:rgb(0,0,0); fill-opacity:0.99607843; stroke-linejoin: miter">
<path d="M855.14856,1123.43L854.542,1119.7478C851.72485,1102.5193,850.50916,1087.8008,850.5803,1075.5896C850.58997,1073.9867,850.4695,1067.7401,850.96375,1056.8578C852.34875,1026.3691,853.1477,1010.2301,853.18884,1008.4214C853.38745,999.6546,853.3154,992.1346,852.9608,985.83795C852.8562,983.98895,852.41455,979.90704,851.3873,973.5999L845.728,949.8556C845.40625,948.87427,844.7129,944.5582,843.6858,936.90344C842.0829,924.96387,841.1865,909.3677,841.8154,890.14215C842.322,874.63654,844.4249,862.6075,847.2677,854.01904L849.70374,845.8784C856.8368,835.27856,861.31976,826.7649,863.5843,820.4873C865.82,814.2895,868.0843,804.0993,869.9493,789.7557C844.7223,729.70245,818.9365,726.04376,818.9365,726.04376C794.17456,722.5299,768.8121,775.4041,768.8121,775.4041C767.0506,800.8685,766.0101,818.094,765.6901,827.0807L764.9808,844.84174C767.98895,884.5336,770.89703,914.4087,774.0921,934.4076C777.84296,957.88727,783.6868,977.02045,791.2365,991.8715C794.3979,1027.6881,796.15753,1051.647,796.8317,1063.7311C797.3349,1072.7482,797.18085,1083.745,796.4986,1096.7676C796.3449,1099.7,796.6617,1101.8566,797.10895,1103.1918C797.9047,1105.5653,799.24005,1106.8082,800.8162,1107.4854C802.4659,1108.1946,806.288,1108.9362,812.53143,1109.2042L816.6659,1056.9916L811.93146,1112.6758C818.4559,1120.7258,824.2851,1124.8112,829.1469,1126.1279C833.34863,1127.2656,841.8904,1126.7561,855.14856,1123.43 Z"/>
</g>
<g style="fill:rgb(0,0,0); fill-opacity:0.99607843; stroke-linejoin: miter">
<path d="M700.626,888.3634L700.626,888.3645L700.626,888.3639L700.626,888.3634 Z"/>
</g>
<g style="fill:rgb(125,139,150); fill-opacity:0.99607843; stroke-linejoin: miter">
<path d="M800.68384,669.51855L800.6841,669.51886L800.6841,669.5194L800.68384,669.51855 Z"/>
</g>
<g style="fill:rgb(0,0,0); fill-opacity:0.99607843; stroke-linejoin: miter">
<path d="M815.5496,544.7513L815.57184,544.56854Q816.11237,524.3197,816.6945,521.0999Q817.0988,517.45917,817.8084,514.5811Q820.7996,504.28308,821.29535,500.62738Q822.4141,492.99863,822.37823,488.44925Q822.3011,478.56357,821.18207,474.48068Q820.6081,471.77628,819.69183,469.33292L818.67645,466.98856Q817.55927,464.73843,816.0776,462.87714Q813.0833,459.16113,809.0109,456.9209Q806.09784,454.85992,797.97644,453.4513Q792.4231,452.7896,785.9509,453.94653Q778.64307,455.2436,767.0465,459.42108Q762.90625,460.07593,760.92346,460.05432Q755.88806,461.01465,752.30774,453.28693Q748.65857,460.48187,748.5006,464.1644Q747.56116,470.0137,753.38257,483.74252L777.89844,519.314L815.5496,544.7513 Z"/>
</g>
<g style="fill:rgb(255,186,155); fill-opacity:0.99607843; stroke-linejoin: miter">
<path d="M819.2514,552.85364L819.2504,552.8551L816.09015,538.2363L815.98456,532.60974Q809.7885,532.75385,806.1657,530.2611Q802.87177,527.78534,800.92523,522.75336Q799.4717,518.39374,799.47986,516.374Q799.3895,515.0687,799.4308,513.77686Q800.0102,505.53394,799.7478,505.10425Q799.739,503.00232,798.1937,500.19885Q793.65466,494.41763,789.88403,496.4394Q788.81934,496.8089,787.34216,499.2052Q786.713,499.92548,783.92224,507.40454Q783.1373,509.18402,782.6179,508.70807Q781.8906,507.57672,781.6371,506.1397Q779.5554,495.7413,778.56824,492.05002Q776.61914,485.31888,775.96326,484.28403Q773.475,477.66776,766.1515,473.94315Q754.77466,469.8823,749.56165,474.87015Q745.66406,488.10306,745.72,492.24026Q745.41797,496.81934,748.8231,501.01965Q740.381,515.45807,740.6421,518.62286Q740.10376,522.5109,747.9901,522.1762Q747.01355,527.9586,747.5857,529.45276Q747.9678,531.1957,750.8528,531.88995Q748.82275,532.3659,749.45654,534.85834Q750.1145,537.03827,752.88513,542.02527Q752.7052,548.0587,753.7886,550.7298Q755.0751,553.20355,756.37537,553.53357Q758.3522,554.802,766.3119,554.4977L775.10803,550.9099L781.0049,557.174L819.2514,552.85364 Z"/>
</g>
<g style="fill:rgb(0,0,0); fill-opacity:0.99607843; stroke-linejoin: miter">
<path d="M750.0387,553.167L750.03784,553.1673L750.0387,553.16815L750.03784,553.1673 Z"/>
</g>
<g style="fill:rgb(255,255,255); fill-opacity:1.0; stroke-linejoin: miter">
<path d="M813.412,769.86273L815.7374,773.49384Q834.3275,802.9623,844.0509,806.0965Q854.94653,810.7747,871.1479,804.9915Q871.8118,800.8011,872.4379,796.585Q876.0297,773.4969,874.1503,755.9614Q874.0052,752.65894,871.8228,740.94977Q862.13336,699.03107,862.18024,697.6214Q861.31305,693.6965,859.68756,681.727Q857.7181,666.32794,857.3532,622.8814Q856.5219,608.78406,855.9714,606.47284Q855.2601,598.99133,851.28424,588.253Q850.6413,585.6012,844.5155,575.72205Q838.12384,566.1516,823.1716,552.9285L816.92706,539.03674L775.2521,553.8587L777.1311,566.3118Q756.4749,604.6169,754.7104,623.41547Q751.5253,643.9,752.6436,665.6816Q752.0789,666.21246,757.8996,734.8041Q759.30756,756.37396,759.30475,764.9885Q759.3925,783.9716,756.2049,792.31256Q771.9069,797.55347,781.60614,793.1884Q790.97504,790.06976,813.412,769.86273 Z"/>
</g>
<g style="fill:rgb(0,0,0); fill-opacity:0.99607843; stroke-linejoin: miter">
<path d="M802.19354,1097.4868L802.19354,1097.4883L777.8884,1104.5782Q775.698,1105.0884,773.6542,1105.6788Q772.64136,1105.9791,771.7202,1106.3298Q766.84656,1107.935,766.62805,1112.0941Q766.3126,1113.6324,767.7523,1119.5564L815.7901,1112.0212L802.19354,1097.4868 Z"/>
</g>
<g style="fill:rgb(0,0,0); fill-opacity:0.99607843; stroke-linejoin: miter">
<path d="M806.5263,1097.3264L805.44025,1098.448Q797.8238,1106.2832,792.77386,1108.2515Q789.9639,1109.5505,786.91504,1110.2817Q785.177,1110.7047,783.3369,1111.0348Q771.28186,1112.9329,770.86975,1113.2343Q766.7499,1114.2698,765.07117,1115.8094Q762.67346,1117.3918,763.46936,1122.3779Q764.7461,1127.0153,769.5747,1130.5549Q774.8761,1134.68,788.3833,1134.6482Q789.57513,1134.6906,795.90717,1134.4315L839.0265,1132.4371Q844.3559,1132.7858,847.00256,1132.5966Q852.829,1132.1017,854.6553,1129.794Q857.2346,1127.2596,856.912,1120.2626Q857.10034,1116.2445,853.1918,1098.7335L838.67004,1109.8357L806.5263,1097.3264 Z"/>
</g>
<g style="fill:rgb(0,0,0); fill-opacity:0.99607843; stroke-linejoin: miter">
<path d="M786.2135,1104.9214L786.21375,1104.9218L786.21375,1104.9226L786.2135,1104.9214 Z"/>
</g>
<g style="fill:rgb(98,179,177); fill-opacity:0.99607843; stroke-linejoin: miter">
<path d="M455.67493,465.9658L455.67493,465.96622L455.67493,465.96664L455.67493,465.96622L455.67493,465.9658L455.67493,465.96622L455.67493,465.96664Q455.67493,465.96622,455.67493,465.9658 Z"/>
</g>
<g style="fill:rgb(0,0,0); fill-opacity:0.99607843; stroke-linejoin: miter">
<path d="M596.86584,595.50104L596.8646,595.5022L596.86584,595.50104L596.8646,595.5022 Z"/>
</g>
<g style="fill:rgb(60,70,79); fill-opacity:1.0; stroke-linejoin: miter">
<path d="M522.9843,697.8841C512.5009,711.77094,515.2528,731.54095,529.1399,742.02405L550.14935,742.025L583.48047,670.0991C569.5936,659.60547,549.834,662.3575,539.3404,676.2443L522.9843,697.8841 Z"/>
</g>
<g style="fill:rgb(0,0,0); fill-opacity:1.0; stroke-linejoin: miter">
<path d="M394.09317,877.3202L362.57956,877.32117L362.57956,974.2774L394.09317,974.27826L394.09317,877.3202 Z M394.09317,877.3202L362.57956,877.32117L362.57956,974.2774L394.09317,974.27826L394.09317,877.3202 Z M394.09317,877.3202L362.57956,877.32117L362.57956,974.2774L394.09317,974.27826L394.09317,877.3202 Z M394.09317,877.3202L362.57956,877.32117L362.57956,974.2774L394.09317,974.27826L394.09317,877.3202 Z"/>
</g>
<g style="fill:rgb(0,0,0); fill-opacity:1.0; stroke-linejoin: miter">
<path d="M403.4191,998.5482L354.95822,998.5488L354.95834,1089.598L403.41922,1089.5986L403.4191,998.5482 Z M403.4191,998.5482L354.95822,998.5488L354.95834,1089.598L403.41922,1089.5986L403.4191,998.5482 Z M403.4191,998.5482L354.95822,998.5488L354.95834,1089.598L403.41922,1089.5986L403.4191,998.5482 Z M403.4191,998.5482L354.95822,998.5488L354.95834,1089.598L403.41922,1089.5986L403.4191,998.5482 Z"/>
</g>
<g style="fill:rgb(60,70,79); fill-opacity:1.0; stroke-linejoin: miter">
<path d="M334.0282,773.9057L473.30823,773.90656L473.30823,742.39215L365.54166,742.393C348.13547,742.3924,334.0282,756.4997,334.0282,773.9057 Z"/>
</g>
<g style="fill:rgb(0,0,0); fill-opacity:1.0; stroke-linejoin: miter">
<path d="M299.88956,823.802L315.64645,823.80286L315.64645,800.1661C315.6463,790.0302,323.89395,781.78375,334.02908,781.7839L523.43616,781.78467L523.43604,766.0269L334.0282,766.0281C315.20386,766.0269,299.88867,781.3411,299.88867,800.1661L299.88882,823.802L299.88956,823.80286 Z"/>
</g>
<g style="fill:rgb(60,70,79); fill-opacity:1.0; stroke-linejoin: miter">
<path d="M448.90628,843.068L448.90628,868.89905C448.90628,879.30884,440.38705,887.82764,429.97736,887.82764L326.69656,887.82886C316.28696,887.828,307.76758,879.3087,307.76758,868.8989L307.76758,843.0679L448.90628,843.0685 Z"/>
</g>
<g style="fill:rgb(0,0,0); fill-opacity:1.0; stroke-linejoin: miter">
<path d="M143.17088,976.7172L255.1286,828.49866C260.34985,821.5867,271.7153,815.9242,280.38214,815.9242L473.30823,815.92523L583.48047,670.0991C586.9159,665.5612,592.3574,662.61975,598.4914,662.61975C608.89075,662.6206,617.31555,671.04456,617.3157,681.44403C617.3157,685.6981,615.8877,689.62714,613.50244,692.7788L492.04852,853.57245L283.36456,853.5735L173.19258,999.3971C169.75726,1003.93506,164.31573,1006.8766,158.1816,1006.8762C147.78241,1006.8766,139.35744,998.4514,139.35744,988.0521C139.35744,983.78674,140.78578,979.86884,143.17088,976.7172 Z"/>
</g>
<g style="fill:rgb(60,70,79); fill-opacity:1.0; stroke-linejoin: miter">
<path d="M264.4453,1080.6311C264.4453,1080.636,493.9416,1080.6365,493.9416,1080.6365C493.9416,1080.6315,507.38797,1080.6315,507.38797,1080.6315L507.38797,1125.4534C507.3878,1129.1672,504.37735,1132.1768,500.6642,1132.1768C496.95105,1132.1768,493.94067,1129.1672,493.94067,1125.4534L493.94086,1107.529L264.44458,1107.5297L264.44458,1125.453C264.44458,1129.1666,261.4341,1132.1765,257.721,1132.1765C254.0079,1132.1765,250.99744,1129.1666,250.99744,1125.453L250.99744,1080.6311L264.4453,1080.632 Z"/>
</g>
<g style="fill:rgb(60,70,79); fill-opacity:1.0; stroke-linejoin: miter">
<path d="M316.51028,942.5186L379.37073,942.51886L442.23148,942.5195Q442.2313,983.436,442.23148,1024.3527Q379.37073,1024.3533,316.51028,1024.3536Q316.51028,983.436,316.51028,942.5186 Z"/>
</g>
<g style="fill:rgb(0,0,0); fill-opacity:1.0; stroke-linejoin: miter">
<path d="M605.63995,754.5317L644.7985,752.1597L683.9573,749.7878Q684.1405,752.81335,684.32385,755.83905Q645.1652,758.21185,606.00665,760.5848Q605.8233,757.5579,605.63995,754.5317 Z"/>
</g>
<g style="fill:rgb(0,0,0); fill-opacity:1.0; stroke-linejoin: miter">
<path d="M605.5666,757.8567L622.44916,757.2206L639.33185,756.58417Q639.4213,758.9503,639.51056,761.31647Q622.62787,761.9535,605.7452,762.59076Q605.6558,760.2237,605.5666,757.8567 Z"/>
</g>
<g style="fill:rgb(0,0,0); fill-opacity:1.0; stroke-linejoin: miter">
<path d="M607.4299,760.71045L608.35455,760.6763L609.27924,760.642Q609.3914,763.6163,609.5036,766.5905Q608.57904,766.62616,607.65436,766.66125Q607.5422,763.68616,607.4299,760.71045 Z"/>
</g>
<g style="fill:rgb(0,0,0); fill-opacity:1.0; stroke-linejoin: miter">
<path d="M612.476,761.0566L613.4007,761.0221L614.3254,760.9876Q614.43744,763.9621,614.54974,766.9366Q613.62494,766.972,612.7004,767.0074Q612.5882,764.032,612.476,761.0566 Z"/>
</g>
<g style="fill:rgb(0,0,0); fill-opacity:1.0; stroke-linejoin: miter">
<path d="M617.9367,759.9498L618.86127,759.9153L619.78595,759.8808Q619.89813,762.85535,620.0103,765.82983Q619.08575,765.86523,618.1611,765.9003Q618.0489,762.9252,617.9367,759.9498 Z"/>
</g>
<g style="fill:rgb(0,0,0); fill-opacity:1.0; stroke-linejoin: miter">
<path d="M622.9902,760.0957L623.91486,760.06116L624.83954,760.027Q624.9516,763.0015,625.0639,765.9757Q624.1391,766.0108,623.21466,766.0462Q623.1025,763.07104,622.9902,760.0957 Z"/>
</g>
<g style="fill:rgb(0,0,0); fill-opacity:1.0; stroke-linejoin: miter">
<path d="M627.4216,759.8264L628.34625,759.79193L629.27106,759.75775Q629.3831,762.73224,629.4954,765.7065Q628.5706,765.7419,627.64594,765.7772Q627.5336,762.8018,627.4216,759.8264 Z"/>
</g>
<g style="fill:rgb(0,0,0); fill-opacity:1.0; stroke-linejoin: miter">
<path d="M632.62396,759.8267L633.54865,759.79193L634.4733,759.75775Q634.5855,762.73224,634.69745,765.7065Q633.77313,765.7419,632.8483,765.7772Q632.73627,762.8018,632.62396,759.8267 Z"/>
</g>
<g style="fill:rgb(0,0,0); fill-opacity:1.0; stroke-linejoin: miter">
<path d="M636.70245,759.2733L637.627,759.23883L638.55145,759.20435Q638.66376,762.1789,638.77606,765.1531Q637.8515,765.1885,636.9268,765.2238Q636.8144,762.2484,636.70245,759.2733 Z"/>
</g>
<g style="fill:rgb(254,186,155); fill-opacity:1.0; stroke-linejoin: miter">
<path d="M696.4105,742.5231L656.9098,746.64355L645.29755,762.0122L700.74976,756.46173L722.33606,739.7007L696.4105,742.5231 Z"/>
</g>
<g style="fill:rgb(255,255,255); fill-opacity:1.0; stroke-linejoin: miter">
<path d="M810.348,632.0895L781.9501,650.0959L707.29395,771.35596L674.98486,748.08606C709.2181,676.72107,731.72235,632.4732,742.3531,615.25256C751.41547,600.5726,756.7054,592.96106,757.6785,591.7929C763.9417,584.2749,768.9796,579.11084,773.339,576.5307C779.1017,573.1203,785.63794,572.55,793.1809,575.20465L810.348,632.0895 Z"/>
</g>
<g style="fill:rgb(0,0,0); fill-opacity:0.99607843; stroke-linejoin: miter">
<path d="M-42.56454,806.4831L-66.64548,806.4837L-90.72648,806.48395Q-90.726456,972.0895,-90.72652,1137.6952Q-66.64559,1137.6958,-42.564518,1137.696Q-42.564533,972.0897,-42.56454,806.4831 Z"/>
</g>
<g style="fill:rgb(0,0,0); fill-opacity:0.99607843; stroke-linejoin: miter">
<path d="M-91.31415,806.4477L-2.7290561,783.02295L46.51422,781.64685Q47.13047,827.7152,47.032616,864.7889Q47.266266,867.2021,45.652714,1076.1512L45.70811,1103.1853Q45.87277,1110.0841,46.144352,1109.4132L-46.543938,1135.5314L-91.31415,806.4477 Z"/>
</g>
<g style="fill:rgb(0,0,0); fill-opacity:1.0; stroke-linejoin: miter">
<path d="M-39.81705,439.8302Q-17.399721,430.63843,4.628951,464.33215Q25.547617,498.17303,35.363304,555.99506Q44.969307,615.7624,38.542816,676.3622Q30.830635,740.5918,8.936008,766.892Q-15.790102,794.5195,-43.461647,759.55597Q-70.6154,722.88947,-81.381325,643.80963Q-90.568275,570.86224,-77.166084,508.3954Q-64.16335,452.29535,-39.88619,439.86194 M-41.835773,429.4488Q-71.00167,442.90424,-86.42742,502.74304Q-102.845055,570.4667,-92.84198,653.48334Q-80.89932,741.4308,-49.370335,778.7348Q-18.5222,812.67535,11.071154,779.5137Q37.148663,747.68414,45.759933,679.54047Q53.126568,614.9105,42.556805,550.21643Q31.845917,488.55927,8.493628,453.11243Q-15.271811,418.6499,-41.68113,429.3808 Z"/>
</g>
<g style="fill:rgb(25,56,68); fill-opacity:0.99607843; stroke-linejoin: miter">
<path d="M-101.438484,596.5931L-101.438484,596.59393L-101.438484,596.5934L-101.438484,596.5931L-101.438484,596.59393L-101.438484,596.5931L-101.438484,596.5934Q-101.438484,596.5931,-101.438484,596.5931 Z"/>
</g>
<g style="fill:rgb(0,0,0); fill-opacity:0.99607843; stroke-linejoin: miter">
<path d="M46.115334,782.19055L22.034328,782.1909L-2.0466757,782.1915Q-2.0466678,947.79694,-2.04666,1113.4027Q22.03434,1113.4032,46.115185,1113.4036Q46.115185,947.79694,46.115334,782.19055 Z"/>
</g>
<g style="fill:rgb(0,0,0); fill-opacity:0.22352941; stroke-linejoin: miter">
<path d="M917.6357,1127.394L912.67303,1131.1805Q877.3904,1142.6248,706.1988,1149.4861Q533.8229,1156.3416,300.23026,1155.0453Q77.29652,1153.2334,-56.364292,1144.4452Q-99.19066,1141.6044,-126.915985,1138.2542L-150.21837,1134.8105Q-169.42168,1131.2557,-169.63757,1127.3916Q-163.80803,1115.5327,-10.41045,1107.6581Q142.98721,1099.7839,373.9984,1099.4849Q605.0097,1099.7848,758.4077,1107.66Q911.8062,1115.5349,917.6357,1127.394 Z"/>
</g>
<g style="fill:rgb(0,0,0); fill-opacity:0.99607843; stroke-linejoin: miter">
<path d="M761.82104,496.35895L761.3685,496.20135Q758.4011,495.1025,756.58044,495.14255Q756.1771,495.15543,755.7887,495.22Q755.58716,495.22733,754.65125,495.50912Q753.7219,495.8126,752.1338,496.65125Q754.84875,496.27386,756.4884,496.23846Q758.078,496.1765,761.82104,496.35895 Z"/>
</g>
<g style="fill:rgb(0,0,0); fill-opacity:0.99607843; stroke-linejoin: miter">
<path d="M761.1581,504.1468L761.15857,504.14764L761.15906,504.14825L761.1581,504.1468 Z"/>
</g>
<g style="fill:rgb(255,255,255); fill-opacity:0.99607843; stroke-linejoin: miter">
<path d="M760.37964,499.83917L760.38,499.8404L754.99023,498.20593Q754.52466,499.20953,754.55054,499.8225Q754.5299,500.4151,755.0062,501.8227L760.37964,499.83917 Z"/>
</g>
<g style="fill:rgb(0,0,0); fill-opacity:0.99607843; stroke-linejoin: miter">
<path d="M755.0187,498.1682L756.5239,499.82605L755.1184,501.72742Q754.71484,501.0094,754.56995,500.62146Q754.43616,500.23444,754.4337,500.16046Q754.4038,500.00873,754.39905,499.85992Q754.3956,499.71234,754.41724,499.56702Q754.4154,499.49304,754.5287,499.1385Q754.65234,498.78534,755.0187,498.1682 Z"/>
</g>
<g style="fill:rgb(255,255,255); fill-opacity:0.99607843; stroke-linejoin: miter">
<path d="M10.342655,698.9825L10.342655,698.9828L10.342655,698.9831L10.342655,698.9825 Z"/>
</g>
<g style="fill:rgb(255,0,0); fill-opacity:0.99607843; stroke-linejoin: miter">
<path d="M472.08887,700.7646L472.08887,700.7652Q472.08887,700.76666,472.08887,700.7646"/>
</g>
</g>
</svg>